<?xml version="1.0" encoding="UTF-8"?>
<svg id="Layer_1" data-name="Layer 1" xmlns="http://www.w3.org/2000/svg" viewBox="0 0 1715.47 2394.56">
  <g id="Portrait">
    <g id="Light_Shading" data-name="Light Shading">
      <path d="M1639.49,1225.66c3.77,2.7,6.39,4.69,9.12,6.53,14.07,9.48,16.84,25,6.92,38.67-18.68,25.76-45.37,36.84-75.71,40.66-26.36,3.32-53.01,4.73-79.16,9.16-23.45,3.97-46.18,12.09-69.6,16.28-39.82,7.12-79.93,12.6-119.93,18.73-38.8,5.95-77.56,12.12-116.41,17.68-45.32,6.48-90.54,13.93-136.39,15.9-11.21.48-22.41,1.4-33.62,1.88-16.29.7-27.67-8.18-31.41-24.23-5.09-21.87,4.17-43.06,25.02-52.17,14.87-6.49,30.69-11.36,46.53-14.99,42.54-9.76,85.2-19.05,128.04-27.41,37.82-7.38,75.93-13.26,113.91-19.82,2.16-.37,4.41-.58,6.43-1.36,2.34-.89,4.48-2.33,6.7-3.53-1.15-1.96-2.02-4.17-3.49-5.85-11.59-13.24-13.92-28.66-10.53-45.27,5.08-24.83,16.89-46.73,30.69-67.57,45.48-68.68,104.79-122.43,176.95-161.89,26.9-14.71,55.63-24.77,86.02-29.9,4.31-.73,8.9-2.98,12.24-5.83,15.08-12.87,33.03-13.73,47.73-.71,6.29,5.57,13.01,9,21.05,10.85,6.87,1.58,13.75,3.52,20.23,6.24,15.61,6.53,19.5,25.86,7.96,38.31-2.81,3.04-5.55,6.44-9.01,8.53-9.77,5.91-11.14,14.09-11.38,25.12-1.07,49.72-2.78,99.46-5.97,149.08-1.53,23.85-14.63,41.98-36.68,52.76-1.7.83-3.19,2.09-6.25,4.15ZM1428.74,1183.87l.6,1.93c3.58-.47,7.39-.31,10.72-1.5,42-15.02,83.91-30.29,125.9-45.34,6.81-2.44,10.27-6.74,10.69-13.98.9-15.57,2.1-31.12,3.12-46.69.42-6.44-2.79-8.49-8.67-4.89-16.21,9.93-32.96,19.19-48.08,30.6-25.84,19.5-50.75,40.25-75.72,60.87-6.79,5.6-12.41,12.62-18.56,18.99Z" style="fill: #ccc; stroke-width: 0px;"/>
      <path d="M915.82,1049.79c3.07-1.04,5.24-1.21,6.61-2.35,5.24-4.33,10.09-9.13,15.37-13.4,1.36-1.1,4.18-1.84,5.59-1.18,12.3,5.8,24.44,11.96,37.47,18.43,0,6.42.03,13.88-.01,21.34-.03,4.91,1.98,7.72,7.18,8.22,23.96,2.32,34.54,27.06,26.9,46.62-7.41,18.98-16.86,37.32-27.05,55-9.47,16.45-21.36,31.49-31.61,47.53-3.71,5.8-6.35,12.48-8.42,19.09-3.97,12.67-4.26,26.56-13.65,37.41-1.16,1.34.29,6,1.73,8.4,13.42,22.21,25.44,45.02,31.98,70.34,1.03,4,2.1,8.06,2.46,12.15,1.51,17.21-14.58,29.17-30.01,21.5-12.17-6.05-23.39-14.03-34.99-21.21-11.61-7.19-23.14-14.52-34.78-21.68-20.33-12.5-35.14-30.83-50.68-48.29-37.54-42.17-67.63-89.47-93.9-139.24-17.11-32.43-32.72-65.69-39.41-102.01-4.04-21.95-.01-43.36,12.52-62.4,10.44-15.85,29.09-22.53,46.83-16.16,6.74,2.42,8.36.19,10.03-5.45,7.81-26.47,20.88-49.88,41.24-68.84,15.82-14.73,33.95-23.63,56.22-21.89,1.63.13,3.29-.22,5.95-.43-.81-3.03-1.37-5.53-2.16-7.96-4.48-13.75-3.5-27.38.73-40.98,1.65-5.3,4.23-9.4,10.43-9.55,6.21-.15,8.98,3.94,10.98,9.04,4.45,11.34,8.92,22.68,13.53,33.95,1.05,2.57,2.73,4.88,5.25,9.27,1.27-6.38,1.79-10.59,2.97-14.62,7.38-25.36,20.39-46.12,47.4-54.02,15.75-4.61,30.1-1.24,41.18,11.51,1.93,2.22,3.58,6.78,2.59,9.05-4.06,9.26-9.2,18.04-13.92,26.97-7.98-4.17-16.38-2.86-23.6,3.3,4.7-.36,9.04-.7,11.96-.93-9.29,7.3-19.41,14.64-28.75,22.87-4.44,3.92-7.79,9.29-10.91,14.44-5.48,9.02-23.66,16.59-33.8,13.55-12.97-3.89-28.73.55-35.78,10.07-7.53,10.18-7.17,25.13,1.28,36.98,12.95,18.16,27.15,35.09,46.32,47.23,10.31,6.53,13.45,16.53,12.13,28.23-.32,2.84-.8,5.67-1.42,10.07ZM835.05,992.74c-.83-.52-1.65-1.03-2.48-1.55-4.29,6.25-9.26,12.15-12.75,18.83-9.54,18.26-11.76,38.53-14.59,58.54-1.09,7.72-4.32,13.96-10.85,18.17-4.28,2.76-5.28,6.32-3.22,10.63,4.62,9.66,9.42,19.23,14.32,28.74.64,1.25,2.34,1.96,5.06,4.12,2.5-47.91,5.15-94.25,24.52-137.47Z" style="fill: #ccc; stroke-width: 0px;"/>
      <path d="M1449.19,503.49c1.92,8.61,3.95,16.04,5.19,23.61,2.96,18.01,5.55,36.08,8.31,54.13.25,1.66.12,3.77,1.09,4.89,11.36,13.12,11.36,29.63,13.88,45.4.46,2.88,1.49,5.7,1.74,8.59.77,9.13,2.13,18.33,1.73,27.43-.91,20.46-2.84,40.88-4.15,61.32-.85,13.25.31,26.04-6.55,39.16-6.8,13-8.08,28.84-12.14,43.34-7.25,25.88-23.4,46.31-41,65.77-1.26,1.39-3.15,2.99-4.83,3.08-8.32.45-12.72,6.31-17.69,11.71-9.99,10.84-17.02,13.27-25.31,9.25-8.67-4.21-13.54-15.58-12.4-27.67,1.36-14.46,6.41-27.8,14.18-39.61,8.92-13.57,19.69-25.9,29.45-38.93,2.71-3.61,5.74-7.53,6.76-11.76,3.83-15.88,7.07-31.9,10.09-47.96.68-3.65.7-8.2-.89-11.37-15.2-30.25-22.87-62.78-28.59-95.73-7-40.35-13.45-80.82-18.84-121.41-2.71-20.42-.43-40.59,15.54-56.48,4.37-4.35-.23-7.69-2.09-10.88-9.9-17.08-20.83-33.61-29.9-51.11-5.42-10.45-9.16-22.09-11.75-33.62-4.26-18.91,8.46-32.22,27.56-30.11,13.98,1.54,26.57,6.53,36.63,16.58,16.55,16.51,34.13,32.23,48.86,50.26,11.35,13.89,21.2,29.92,24.2,48.33,1.95,11.97,3.65,23.66,7.46,35.42,6.24,19.28-9.23,34.05-29.07,29.73-1.9-.41-3.82-.7-7.46-1.36Z" style="fill: #ccc; stroke-width: 0px;"/>
      <path d="M1110.7,1231.37c-.51,5.25-.43,12.44-2.05,19.23-3.54,14.89-16,20.89-30.35,15.96-5.18-1.78-10.84-2.2-16.31-3.06-3.12-.49-6.38-.26-9.43-.98-8.29-1.94-14.39-9.11-14.84-16.96-.48-8.35,4.25-15.16,12.78-18.39,9.24-3.5,9.43-3.75,7.1-13.21-6.83-27.76-15.53-54.84-28.94-80.25-4.13-7.82-2.73-18.67,2.72-24.73,6.12-6.8,16.91-9.53,25.38-6.9,12.51,3.89,21.18,12.6,26.42,23.76,7.2,15.35,13.26,31.32,18.67,47.41,3.16,9.39,4.43,19.48,5.93,29.36,1.35,8.9,1.86,17.93,2.92,28.76Z" style="fill: #ccc; stroke-width: 0px;"/>
      <path d="M1214.77,621.42c-22.59-1.12-44.18-5.06-64.8-14.17-6.28-2.78-10.48-6.8-11.63-13.79-.34-2.07-1.18-4.32-2.48-5.92-15.38-18.96-16.7-40.45-11.04-62.95,5.65-22.46,13.77-43.81,32.49-59.08,7.84-6.39,17.07-8.58,26.78-5.18,15.25,5.34,18.13,23.78,5.04,33.85-10.31,7.93-20.45,15.65-26.49,27.65-8.26,16.39-10.02,33.3-5.32,51.02,1.17,4.4,3.49,6.16,8.05,6.81,33.21,4.73,66.39,9.71,99.56,14.73,5.69.86,10.39,3.49,10.53,10.14.14,6.64-4.19,9.54-10.09,10.34-16.85,2.27-33.73,4.38-50.59,6.56Z" style="fill: #ccc; stroke-width: 0px;"/>
      <path d="M984.08,398.88c20.94.51,39.27,14.51,50.77,36.81,7.16,13.88,11.34,29.36,16.14,44.35,1.23,3.85.63,8.87-.71,12.82-1.85,5.44-6.67,8.5-12.56,8.39-7.19-.14-11.32-4.63-14.13-10.91-6.05-13.51-11.62-27.3-18.7-40.25-7.3-13.34-18.32-23.11-34.51-23.62-7.64-.24-15.35,1.68-23.02,2.68-1.92.25-3.79.87-5.71,1.1-5.16.62-9.37-1.06-11.19-6.13-1.85-5.11.45-9.28,4.84-11.81,13.39-7.73,27.43-13.59,48.8-13.42Z" style="fill: #ccc; stroke-width: 0px;"/>
      <path d="M1237.7,1231.56c-22.98-4.1-46.05-7.79-68.92-12.46-11.54-2.36-17.31-9.77-17.14-18.92.18-9.22,7.76-17.33,18.82-19.48,21.37-4.14,41.9.35,61.56,8.06,10.98,4.3,21.05,11.05,31.23,17.19,4.61,2.78,7.32,7.4,5.74,13.15-1.53,5.56-5.73,8.32-11.28,8.96-6.53.76-13.07,1.33-19.61,1.98-.13.51-.26,1.02-.39,1.52Z" style="fill: #ccc; stroke-width: 0px;"/>
      <path d="M924.43,337c-.59,2.74-1.18,5.48-1.78,8.23.38.17.76.34,1.15.5,5.14-9.69,10.12-19.48,15.46-29.06,13.64-24.46,26.23-49.69,48.3-68.2,2.05-1.72,3.72-4.34,6.05-5.2,4.54-1.68,10.34-4.55,13.98-3.02,5.65,2.38,8.56,9.08,6.65,15.52-1.83,6.2-4.37,12.59-8.16,17.75-16.73,22.76-34.01,45.12-51.12,67.59-6.19,8.13-12.14,16.5-18.93,24.1-2.59,2.91-7.17,5.42-10.94,5.56-4.87.18-5.88-4.68-7.6-9.08-4.07-10.42,2.1-17.16,6.95-24.68Z" style="fill: #ccc; stroke-width: 0px;"/>
      <path d="M947.33,567.58c-39.32.19-68.56-22.83-77.84-61.38-.89-3.71-1.16-7.71-.94-11.53.46-7.71,6.09-13.79,12.94-14.69,6.98-.91,13.55,3.41,15.97,11.13,4.25,13.55,11.91,24.94,21.65,35.02,10.74,11.11,24.73,15.9,39.22,19.58,10.26,2.6,14.33,6.24,13.65,12.27-.7,6.16-5.89,9.32-15.88,9.6-2.92.08-5.84.01-8.77.01Z" style="fill: #ccc; stroke-width: 0px;"/>
      <path d="M1118.8,688.95c-19.81-1.74-38.03-10.31-50.92-28.25-2.99-4.16-5-9.63-5.67-14.74-1.8-13.61,11.41-24.81,23.5-18.73,19.33,9.73,37.98,21.22,47.63,42.28,5.12,11.17-.4,19.63-14.54,19.43Z" style="fill: #ccc; stroke-width: 0px;"/>
      <path d="M1161.93,812.57c5.44,1.39,10.12,2.42,14.69,3.79,7.87,2.36,15.34,2.34,22.37-2.6,4.82-3.38,9.45-3.47,13.51,1.4,7.94,9.53,16.34,18.73,23.56,28.78,1.98,2.76,2,9.15.08,11.87-1.95,2.76-7.91,4.98-11.25,4.11-19.67-5.14-38.58-12.29-53.85-26.52-5.55-5.17-9.29-11.24-9.11-20.83Z" style="fill: #ccc; stroke-width: 0px;"/>
      <path d="M1021.3,593.81c-.48,11.31-6.63,15.54-12.97,19.22-5.8,3.37-10.55-.08-14.12-4.22-6.64-7.7-13.55-15.37-18.85-23.98-5.31-8.63-2.33-17.53,5.32-21.29,7.62-3.74,15.64-.13,19.82,9.32,2.43,5.49,5.13,9.55,11.64,11.68,4.19,1.37,7,6.95,9.15,9.27Z" style="fill: #ccc; stroke-width: 0px;"/>
    </g>
    <g id="Contours">
      <path d="M90.53,1906.73c7.04-25.61,27.93-45.23,40.58-68.56,22.09-40.75,42.43-82.46,64.81-123.05,23.91-43.36,48.75-86.24,74.37-128.61,11.81-19.54,24.85-38.83,40.13-55.68,40.09-44.19,66.74-95.65,88.43-150.57,13.96-35.34,29.84-69.98,46.15-104.32,13.46-28.36,32.99-52.83,53.06-76.91,35.11-42.13,80.09-69.65,130.04-89.97,22.62-9.2,46.31-11.12,70.91-6.93.34-1.75.72-3.32.93-4.9,2.73-20.51,4.27-41.27,8.38-61.5,8.52-41.98,33.63-74.21,64.35-102.38,19.62-17.99,40.29-34.73,64.89-45.91,1.83-.83,3.05-5.64,2.65-8.32-3.26-21.96-8.88-43.74-10.09-65.78-1.89-34.28-1.11-68.71-1.01-103.08.1-32.45.79-64.89,1.21-97.34.02-1.71-.64-3.76.07-5.06,4.59-8.4-.92-12.97-6.27-17.78-30.51-27.37-35.73-62.33-29.91-100.5,1.28-8.38,3.25-16.66,4.7-24.01-4.25-.98-10.24-.61-12.03-3.17-2.74-3.91-4.05-10.05-3.39-14.89,2.19-16.13,15.27-22.25,29.82-15.28,1.71.82,5.43-1.23,7.55-2.84,13.16-10,26.06-20.34,39.21-30.35,2.45-1.86,5.66-2.73,9.06-4.32-.85-.7-1.41-1.51-2.11-1.67-16.48-3.73-24.88-15.46-29.59-30.43-5.82-18.54-6.46-37.6-2.52-56.48,8.21-39.34,20.33-76.88,42.97-111.14,23.97-36.29,55.71-63.03,91.98-85.34,27.34-16.82,56.54-29.48,87.41-38.58,8.43-2.48,16.99-5.49,23.35-13.72,4.05-5.25,12.55-8.49,19.56-9.7,11.08-1.92,20.68-5.65,30.25-11.62C1164.99,14.47,1202.83.65,1243.57.24c50.68-.51,101.7-.65,152.01,4.53,64.64,6.66,120.39,36.15,168.59,79.72,11.94,10.79,24.02,21.43,36.27,31.86,28.74,24.47,50.7,53.32,54.76,91.98,1.66,15.77-.6,32.01-1.85,47.97-.22,2.76-4.33,5.22-7.82,6.86-.18.44-.6.92-.51,1.3,4.94,22.1,1.48,44.21.06,66.31-.25,3.95-.91,7.66,3.96,9.71,1.4.59,2.36,3.06,2.85,4.86,12.18,45.01,19.33,90.68,16.12,137.45-.61,8.88-2.97,17.8-5.65,26.35-3.05,9.71-9.72,15.56-20.77,14.94-2.07-.11-4.42.55-6.26,1.55-11.87,6.46-22.73,3.87-32.76-3.81-13.11-10.03-23.47-22.49-32.4-36.43-5.43-8.48-12.1-16.39-19.32-23.44-24.27-23.69-52.86-41.5-81.81-58.79-28.14-16.8-55-35.35-77.9-59.12-3.38-3.5-6.95-6.94-10.89-9.77-64.08-45.97-130.95-86.85-210.3-99.67-29.36-4.74-59.79-3.58-89.74-3.74-19.71-.11-39.51,1.62-59.14,3.71-10.02,1.07-19.9,4.33-29.6,7.38-8.58,2.7-12.9,9.31-15.31,18.06-4.61,16.68-9.43,33.36-15.45,49.56-10.29,27.68-27.9,50.33-51.63,67.77-9.29,6.83-19.98,11.75-30.23,17.65,3.5,3.74,8.19,5.3,14.61,4.55,32.97-3.83,64.69,2.17,95.34,13.97,18.49,7.12,30.11,22.02,39.24,38.85,2.63,4.85,4.99,5.62,10.31,4.13,24.65-6.88,48.32-2.39,71.34,7.46,2.58,1.1,5.23,2.05,8.39,3.28-4.04-16.95,1.03-30.61,15.2-40.65,16.69-11.82,35.82-15.39,55.13-10.52,15.42,3.89,29.88,11.55,44.75,17.58.87.35,2.05.96,2.3,1.71,3.03,8.94,11.2,8.5,18.26,10.47,29.87,8.32,54.91,23.89,72.64,49.87,3.06,4.49,5.67,7,11.77,5.2,6.65-1.96,12.51,1.2,16.74,6.53,2.47,3.11,4.67,4.12,8.67,2.59,2.47-.94,5.85-.58,8.52.21,44.72,13.32,88.35,29.59,130.82,48.93,3.1,1.41,6.69,2.52,8.93,4.85,2.2,2.29,4.7,6.59,3.87,8.84-.85,2.29-5.48,4.1-8.62,4.39-3.47.32-7.22-1.01-10.67-2.18-38.81-13.14-77.66-26.2-116.32-39.78-7.44-2.61-13.86-8.15-21.29-10.8-4.87-1.74-10.89-1.5-16.04-.44-1.5.31-2.86,6.66-2.45,10.02,3.16,25.75-3.58,49.96-11.54,73.85-2.16,6.49-6.47,12.77-11.22,17.79-24.49,25.87-53.83,42.46-90.08,45.02-16.3,1.15-32.58,2.69-48.9,3.36-7.39.3-14.85-1.12-23.45-1.86,0,2.39.09,5.18-.01,7.96-1.18,31.73-17.38,43.3-47.03,47.33-4.8.65-11.04-3.18-15.35-6.56-5.69-4.46-10.25-10.41-15.05-15.93-3.95-4.55-8.6-5.88-14.41-4.72-8.85,1.75-17.72,3.53-26.66,4.67-15.05,1.91-29.73.21-43.59-6.33-3.16-1.49-5.54-2.33-8.05,1.34-1.16,1.69-4.05,3.02-6.2,3.09-23.6.76-46.42-14.83-37.3-44.23,2.99-9.65,7.82-18.72,12.05-28.63-35.41,11.49-66.86-4.31-99.92-12.83-.18.85-.73,2.18-.68,3.49,2.94,68.97,4.8,138.01,9.41,206.87,2.11,31.51,9.08,62.76,14.83,93.94,7.84,42.55,32.17,73.95,69.32,94.91,17.32,9.77,36.11,17.06,54.55,24.71,33.34,13.83,67.27,26.31,100.29,40.87,21.98,9.69,43.72,12.1,67,7.07,46.51-10.04,91.24-24.95,133.75-46.46,18.72-9.47,37.52-18.78,56.46-27.81,16.68-7.96,31.64-18.23,45.07-30.9,29.4-27.74,55.18-57.92,68.51-97.08,1.99-5.85,5.87-11.28,9.83-16.12,1.74-2.13,6.47-3.8,8.81-2.93,2.72,1.01,6.23,5.19,6.05,7.75-.73,10.1-1.42,20.55-4.56,30.07-11.96,36.25-33.71,66.2-61.22,92.39-17.13,16.3-36.48,29.06-56.87,40.84-59.46,34.35-123.06,57.68-189.41,74.48-29.9,7.57-58.26,6.3-86.15-7.42-13.33-6.56-27.33-11.76-41.05-17.52-2.41-1.01-4.96-1.72-8.95-3.08,1,3.28,1.47,5.24,2.19,7.1,8.66,22.39,16.25,44.95,15.78,69.49-.1,5.44,1.64,11.11,3.48,16.34,8.11,23.01,16.56,45.9,24.89,68.84.08.23.17.46.26.68,9.32,24.22,11.05,25.27,35.75,18.54,36.24-9.86,72.43-19.92,108.56-30.17,3.23-.92,6.6-3.27,8.7-5.91,53.03-66.62,105.94-133.34,158.78-200.1,18.35-23.19,42.54-39.4,66.7-55.45,37.98-25.23,76.66-49.41,114.74-74.49,10.33-6.81,20.21-14.6,29.19-23.11,12.34-11.7,23.63-24.53,35.54-37.05-11.01-12.79-21.61-25.12-32.99-38.35-2.6,3.51-5.24,6.82-7.59,10.32-13.72,20.36-30.82,37.41-52.24,49.29-10.03,5.56-21.4,9.91-32.66,11.78-19.95,3.31-37.44-8.37-42.07-25.92-.85-3.23-1.87-7.29-.64-9.97,1.61-3.52,5-7.78,8.31-8.48,2.79-.59,6.83,3.13,9.76,5.61,1.47,1.24,1.58,4,2.49,5.99,2.93,6.41,7.88,10.07,15.02,9.47,16.36-1.39,27.43-12.04,40.96-22.66-14.22-4.11-15.46-14.11-15.79-24.4-.27-8.48-.06-16.98-.06-26.82-6.47,2.26-12.33,4.27-18.16,6.35-5.97,2.13-11.8,4.87-17.94,6.25-2.72.61-7.91-.71-8.66-2.53-1.05-2.53.65-6.5,1.89-9.56.65-1.6,2.72-2.78,4.37-3.78,12.3-7.42,24.55-14.92,37.06-21.97,3.28-1.85,7.38-2.87,11.16-3.07,8.82-.46,13.59,6.81,11.29,15.23-1.21,4.43-1.54,9.43-.9,13.98,1.79,12.69,4.28,25.27,6.5,37.9.88.7,1.76,1.39,2.64,2.09,1.47-2.5,2.65-5.23,4.44-7.47,21.07-26.47,39.51-54.51,51.86-86.23,7.91-20.32,11.37-41.35,10.08-63.12-.76-12.77-3.62-19.67-9.93-24.5-4.05,5.27-6.65,10.62-6.35,17.74,1.76,41.8-7.75,80.8-30.05,116.43-1.16,1.85-2.25,4.19-4,5.13-2.54,1.37-6.23,3-8.36,2.06-2.11-.93-4.19-4.99-3.99-7.5.44-5.52,2.13-10.98,3.63-16.38,5.84-20.91,11.84-41.78,17.68-62.69.83-2.96,1.11-6.06.16-10.01-1.85,1.7-3.66,3.44-5.55,5.09-13.77,12.02-27.17,24.5-41.51,35.79-5.93,4.67-13.63,7.49-20.94,9.86-6.21,2.01-12.27.16-15.38-6.49-2.52-5.39.59-10.23,6.64-15.29,14.76-12.33,28.68-25.68,43.52-37.91,19.84-16.34,33.33-36.38,39.89-61.35,3.22-12.25,7.83-24.12,11.72-36.19,2.51-7.77,7.03-11.38,12.93-10.04,6.04,1.36,9.08,7.4,6.67,15.42-3.02,10.02-6.87,19.79-10.38,29.67-.86,2.41-1.77,4.8-3.16,8.55,4.21-.7,7.05-.93,9.74-1.67,13.45-3.65,25.54.57,31.18,13.41,4.12,9.38,7,19.96,7.52,30.16,1.85,35.86-8.17,68.99-26.22,99.79-5.17,8.82-10.71,17.42-15.53,25.24,11.66,14.83,22.88,29.1,34.39,43.74.94-.62,2.2-1.91,3.7-2.34,2.77-.8,5.69-1.1,8.54-1.61.29,2.91,1.51,6.12.69,8.68-1.88,5.88-2.76,11.18-1.35,17.63,1.08,4.91-.58,11.56-3.34,15.97-7.22,11.5-14.8,23.03-23.9,33.05-19.37,21.33-42.62,37.92-68.46,50.67-21.87,10.8-43.98,21.12-65.98,31.67-44.33,21.27-82.42,49.92-110.36,91.2-30.99,45.8-68.58,86.29-104.45,128.15-6.12,7.14-12.09,14.41-18.13,21.63.35.58.7,1.16,1.05,1.74,2.45-.44,4.94-.74,7.34-1.35,98.26-24.95,198.4-31.36,299.21-28.58,28.61.79,57.11,6.57,85.59,10.61,3.99.57,7.54,4.29,11.29,6.56-2.36,3.78-3.88,8.88-7.28,11.03-4.45,2.81-10.37,4.56-15.67,4.59-44.64.19-89.3.61-133.91-.43-87.19-2.04-172.49,9.11-257.27,29.64-75.53,18.29-149.45,41.5-223.5,64.59-10.71,3.34-21.75,5.77-32.2,9.77-10.09,3.86-19.61,9.21-29.59,14.02,9.01,11.76,16.81,22.31,25.18,32.39,1.19,1.44,5.33,1.26,7.82.65,23.24-5.61,46.26-12.19,69.63-17.12,44.39-9.36,89.08-17.32,133.44-26.81,37.67-8.06,74.78-19.04,112.64-25.92,58.95-10.7,118.61-14.44,178.57-11.01,20.69,1.18,41.5,1.52,62.04,4.01,33.42,4.04,63.98,16.87,92.79,33.96,3.32,1.97,6.56,4.43,9.01,7.36,1.6,1.91,3.02,5.8,2.1,7.49-.94,1.73-4.95,2.85-7.4,2.53-9.67-1.24-19.21-3.42-28.87-4.74-14.74-2.01-29.55-3.48-44.31-5.41-4.9-.64-7.27.99-7.93,5.9-.72,5.31-2.34,10.52-2.78,15.85-1.68,20.14-10.44,36.91-23.98,51.41-8.82,9.45-17.81,18.76-27.07,27.77-16.24,15.8-36.57,23.71-57.95,29.76-73.35,20.77-147.71,22.03-222.75,12.42-33.87-4.34-67.8-8.27-101.74-12.06-13.52-1.51-19.33,3.21-20.96,17.17-1.56,13.31-3.22,26.78-2.85,40.12.55,20.2-8.28,34.19-24.18,45.48-24.88,17.67-49.7,35.05-77.8,47.72-22.26,10.03-42.77,23.56-57.79,43.74-1.43,1.91-2.76,3.9-5.1,7.22,5,0,8.94.84,12.35-.15,14.45-4.19,28.8-8.75,43.07-13.51,8.94-2.98,11.05-1.92,14.18,6.53,5.84,15.74,12.81,31.09,18.16,46.98,10.18,30.28,11.09,61.21,4.55,92.46-10.25,48.95-24.45,96.49-49.46,140.23-.57.99-.74,2.2-1.56,4.77,14.71-4.35,29.15-6.33,39.73-17.09,29.92-30.45,59.6-61.13,89.42-91.67,13.8-14.13,27.7-28.16,41.54-42.26,1.99-2.03,3.86-4.18,5.87-6.35-1.08-1.03-1.52-1.81-2.11-1.95-22.68-5.46-36.94-20.85-45.12-41.37-5.44-13.66-9.16-28.41-11.03-43.01-7.44-58.31,26.37-123.22,75.82-147.28,16.01-7.79,32.72-12.86,50.85-10.92,18.25,1.95,30.16,10.67,33.32,28.69,2.57,14.65,2.29,30.06,1.29,45-.97,14.54-4.47,28.91-6.8,43.36-.29,1.81-.25,3.68-.49,7.53,3.31-3.21,5.36-5.1,7.31-7.1,20.86-21.28,41.91-42.38,67.96-57.49,30.4-17.63,63.21-25.98,98.25-22.47,11.9,1.19,23.86,4.96,35.05,9.42,15.45,6.16,24.7,18.8,28.98,34.7,2.59,9.64,4.08,19.57,6.3,29.32,6.98,30.61,26.2,50.2,55.04,61.32,8.35,3.22,16.26,7.55,24.5,11.08,2.81,1.21,5.97,1.97,9.02,2.19,5.1.38,10.38-.58,15.32.41,4.45.89,10.31,2.56,12.26,5.84,1.78,2.99-.86,8.6-3.23,12.84.2.42.28,1.04.61,1.23,17.72,9.83,23.42,25.57,15.42,44.4-8.52,20.08-25.11,29.74-45.65,33.66-5.02.96-10.16,1.3-15.26,1.73-4.41.37-6.21,2.58-5.06,6.81,3.11,11.52.78,22.72-1.58,34-5.44,26.03-9.77,52.33-16.26,78.08-4.86,19.3-11.96,38.09-18.89,56.8-3.51,9.48-9.71,17.52-17.82,21.22,0,5.21,1.51,10.26-.33,13.21-3.32,5.32-9.73,5.14-15.31,3.38-13.04-4.13-21.18-13.45-25.92-25.96-1.36-3.59-2.34-7.33-3.77-11.89-2.68,1.88-4.67,3.63-6.95,4.83-11.37,5.96-22.27,13.62-34.36,17.23-23.88,7.13-39.87-2.27-48.46-25.73-.23-.63-.79-1.13-1.5-2.13-1.41,1.05-2.84,1.86-3.97,2.98-32.82,32.56-68.81,60.6-111.69,78.95-4.69,2.01-9.38,4.32-13.51,7.28-17.35,12.43-37.8,15.54-57.94,18.8-18.03,2.92-33.36-12.57-33.19-32.39.14-15.54,5.59-29.7,13.78-42.65,5.73-9.05,12.28-17.61,18.73-26.18,25.88-34.38,50.31-69.7,67.5-109.39,15.6-36.04,30.87-72.27,38.93-110.97.93-4.45,1.11-9.05,1.82-15.11-3.99,1.23-6.66,1.97-9.28,2.87-9.44,3.27-18.71,7.2-28.34,9.76-14.85,3.95-29.94-1.12-35.77-14.01-.51-1.13-.79-2.37-1.18-3.56-.97.64-1.93,1.28-2.9,1.92.47,1.67.63,3.51,1.45,4.98,22.69,40.66,34.04,83.68,23.34,129.94-3.44,14.88-10.07,29.84-18.54,42.56-15.11,22.67-31.56,44.69-49.55,65.13-35.32,40.13-73.43,77.62-114.36,112.13-24.21,20.42-50.66,37.32-79.88,49.69-29.83,12.63-57.19,29.44-83.45,48.28-14.03,10.07-25.1,22.46-32.19,38.13-7.94,17.58-1.85,45.51-17.96,56.12-6.93,4.56-18.97,5.81-24.89,0-3.81-3.74-5.68-13.72-5.19-19,1.85-20.25,8.89-38.92,22.28-53.97,15.67-17.61,32.28-34.59,50.01-50.11,31.63-27.7,68.82-46.9,106.16-65.63,39.79-19.96,76.33-44.58,106.63-77.42,26.13-28.32,51.73-57.16,76.6-86.59,10.8-12.78,19.46-27.42,28.54-41.56,8.25-12.85,12.4-27.29,11.14-42.51-1.37-16.45-3.59-32.87-6.47-49.12-2.43-13.74-10.61-18.56-23.38-12.53-11.5,5.42-22.46,12.77-32.21,20.99-17.52,14.77-30.66,33.48-41.42,53.57-18.21,33.98-46.84,55.46-81.42,70.29-4.92,2.11-10.18,3.96-14.36,7.14-14.57,11.12-31,17.3-48.95,19.84-6.51.92-10.51,4.74-14.59,9.78-7.14,8.82-14.38,18.29-23.58,24.56-18.15,12.37-36.81,23.84-52.36,39.67-2.18,2.22-6.78,2.06-10.26,3-.62-3.36-2.54-7.13-1.63-10.01,4.61-14.62,9.49-29.11,19.09-41.62,13.23-17.24,28.48-31.99,47.18-43.24,3.99-2.4,7.97-6.05,10.12-10.1,13.49-25.42,27.42-50.68,39.4-76.83,26.08-56.91,35.08-115.96,18.22-177.45-1.83-6.68-3.99-13.27-5.49-18.25-6.5,1.95-11.74,4.59-17.12,4.96-23.33,1.57-46.7,2.87-70.08,3.49-17.1.46-33.31,3.71-48.97,10.6-10,4.4-16.77,11.14-20.4,21.53-3.12,8.96-2.95,9.34,6.74,10.85,12,1.87,24.39,2.86,35.78,6.68,30.28,10.17,36.4,28.82,16.53,53.93-18.73,23.67-38.93,46.33-63.83,64.1-10.3,7.36-20.35,15.08-30.71,22.35-3.95,2.77-8.24,5.48-12.79,6.84-3.33,1-8.21.97-10.72-.87-1.77-1.3-1.39-6.54-.83-9.83,1.78-10.37,2.48-20.4-4.47-29.37-7.79-10.06-20.52-8.91-25.64,2.32-1.82,4-3.78,7.93-5.48,11.98-4.55,10.84-8.27,21.61-6.01,33.95,1.89,10.33-1.93,19.71-9.13,27.52-3.57,3.87-7.07,7.8-11.15,12.31,24.19,11.76,31.87,33.34,37.04,56.52.27,1.19.47,2.39.7,3.59,10.62,54.2,10.8,109.18,11.46,164.04.6,49.58,46.79,105.22,17.78,146.59-5.04,7.19-19.31,5.26-26.35,0-11.5-8.59-9.09-27.33-12.02-41.33-5.96-28.46-8.68-57.34-8.26-86.47.45-30.71,1.84-61.46.89-92.13-.8-25.99-3.28-52.06-7.01-77.8-3.2-22.08-11.92-42.07-34.84-54.03-7.87,19.45-16.86,38.92-23.5,59.17-3.62,11.05-5.66,23.69-4.28,35.11,6.43,53.11,9.51,106.42,8.77,159.8-.46,33.16,29.83,70.85,9.98,97.67-5.81,7.84-21.53,5.93-29.28,0-7.11-5.45-6.39-17.25-6.63-25.96-.41-15.1-7.49-26.89-15.3-38.53-12.31-18.33-28.39-31.34-51.21-34.23-9.19-1.16-18.32-2.78-27.46-4.3-26.22-4.36-52.44-8.65-78.63-13.2-15.51-2.69-28.05-9.7-34.31-25.19-.3-.73-1.31-1.17-2.66-2.32-24.64,46.47-18.32,113.41-60.48,143.72-4.75,3.42-13.53,4.24-17.57,0-5.02-5.27.3-14.6,1.13-21.82,5.14-44.99,24.18-85.35,44.24-124.88,17.63-34.75,38.6-67.81,57.92-101.71,4.7-8.25,9.44-16.6,12.93-25.39,10.44-26.3,21.22-52.52,30.12-79.35,15.48-46.67,41.02-88.44,62.4-132.24,24.59-50.38,57.14-95.92,87.23-142.97,22.83-35.68,52.79-64.18,86.35-89.59,41.22-31.2,82.61-62.28,122.21-95.47,33.87-28.39,71.99-46.25,114.44-56.07,71.03-16.42,142.58-13.46,213.87-3.33,54.44,7.73,108.88,14,163.88,14.17,34.34.11,67.24-8.02,99.04-20.51,15.09-5.93,29.33-14.03,39.75-26.68,17.12-20.79,25.99-45.26,28.78-73.36-6.72,0-13.49-.23-20.22.16-1.76.1-3.83,1.77-5.03,3.3-8.25,10.45-15.19,22.2-24.63,31.41-31.92,31.15-70.38,45.4-115.21,41.46-40.32-3.55-80.68-6.68-120.99-10.38-31.55-2.89-63.06-6.23-94.54-9.74-3.48-.39-6.66-3.28-10.02-4.9-6.93-3.35-12.15-9.91-21.54-8.36-35.37,5.84-70.76,11.64-106.3,16.27-30.37,3.96-58.21,13.67-83.77,30.52-11.12,7.33-22.45,14.52-34.35,20.43-20.28,10.07-41.67,18.01-61.57,28.74-56.02,30.21-100.86,72.56-132.06,128.29-15.38,27.47-33.16,53.06-55.16,75.35-24.41,24.74-46.64,51.1-67.33,78.98-13.45,18.13-26.26,36.29-33.8,57.83-3.29,9.41-7.68,18.48-12.1,27.44-2,4.06-4.6,8.58-8.21,10.86-3.4,2.14-9.36,3.35-12.6,1.75-3.24-1.61-5.47-7-6.35-11.11-.68-3.21,1.22-7.06,2.28-10.54,1.63-5.36,4.03-10.53,5.21-15.97,2.94-13.59,5.8-27.23,2.61-41.27-1.44-6.34-4.91-8.97-11.49-8.23-11.92,1.35-21.96,6.7-27.98,16.66-7.63,12.64-15.18,25.78-19.81,39.69-14.62,43.93-21.87,89.48-26.56,135.44-.17,1.68.47,4.65,1.51,5.06,9.83,3.91,8.17,11.67,6.58,19.16-4.18,19.8-12.47,37.91-23.15,55.03-11.78,18.87-21.95,38.44-29.51,59.52-14.21,39.63-24.73,80.05-32.13,121.52-5.69,31.85,4.1,74.61-21.21,94.82-8.77,7-26.98,9.01-33.67,0-4.65-6.26,4.05-15.1,6.83-22.36,13.01-34.01,19.69-69.2,21.63-105.52.44-8.3-.41-13.11-9.3-15.27-4.53-1.1-8.41-4.75-12.65-7.15-1.72-.97-3.59-1.68-5.88-2.73.12,1.58.03,2.11.21,2.51,14.79,33.06,4.62,61.82-23.02,75.53-1.97.97-3.55,4.45-3.79,6.9-2.08,21.66-.98,43.04,6.47,63.77.48,1.32,1.43,3.25.46,4.32-3.94,4.33-12.68,3.23-17.57,0-6.42-4.24-6.05-14.14-8.53-19.94-10.8,2.54-20.81,6.44-31,6.98-25.96,1.38-52.01,1.12-78.02,1.79-24.26.62-55.32,19.26-72.76,2.39-7.02-6.79-7.12-22.6,0-29.28,13.65-12.81,37.41,1.99,56.06,3.66,24.83,2.22,49.69,3.26,74.36-.35,10.41-1.52,21-4.94,30.29-9.83,5.84-3.07,9.7-10.25,13.9-15.98,2.31-3.16.87-5.9-3.07-7.16-18.05-5.75-36-11.84-54.16-17.25-8.14-2.42-16.96-2.69-24.97-5.4-18.56-6.29-36.05-3.5-53.17,4.5-7.27,3.4-14.16,7.64-21.49,10.9-5.7,2.54-12.66,9.81-17.75,6.16-7.54-5.4-5.04-20.03,0-27.82,4.22-6.53,14.32-6.11,21.25-9.63,17-8.62,34.8-13.69,54-13.3,1.52.03,3.06-.49,5.04-.83-7.37-15.3-16.41-28.05-30.21-37.41-19.49-13.22-44.6-24.44-50.07-48.65-2.47-10.95-5-23.63,0-33.68,1.84-3.69,6.68-4.86,9.86-7.48,13.13-10.87,27.98-13.4,44-8.6,7.2,2.16,14,5.63,21.05,8.31,5.71,2.17,11.53,4.04,18.44,6.44-.67-3.4-.84-4.83-1.23-6.21-4.82-17.09-.07-31.21,13.09-42.81,17.07-15.04,36.92-21.27,59.51-19.04,6.31.62,12.64,1.71,18.94,1.51,11.25-.35,16.51-9.45,12.34-19.67-2.85-6.98-4.99-14.25-7.46-21.38-.75-2.16-1.59-4.3-2.27-6.13-7.65,4.82-14.17,10.14-21.6,13.35-14,6.03-21.38.76-23.75-14.32-2.26-14.44-5.71-28.52-13.8-41.28-18.11-28.6-12.41-68.52,12.47-91.74,13.02-12.15,30.92-8.9,38.94,7.08,1.5,2.99,2.92,6.01,4.81,9.91,13.34-11.54,27.67-16.81,44.46-11.59,16.69,5.19,25.59,18.21,31.19,31.93,5.86-4.85,11.22-9.29,17.22-14.25-2.55-1.24-4.17-2.17-5.9-2.84-13.71-5.36-21.42-15.33-23.94-29.84-3.07-17.65-2.29-34.94,2.83-52.12,6.22-20.85,17.25-39.2,28.95-57.28,10.07-15.57,20.51-30.95,29.56-47.1,15.12-27,22.9-56.2,24.5-87.24.49-9.56,2.39-19.63,6.23-28.33,12.64-28.63,20.68-58.26,24.32-89.33,1.17-10.03,3.87-20.28,8-29.47,7.65-17.06,26.78-21.92,41.66-10.58,6.97,5.31,12.02,13.16,17.82,19.97,5.33,6.26,9.27,15.06,15.99,18.51,14.97,7.67,31.3,12.69,48.75,19.44,2.09-28.23,21.01-37.69,42.83-44.14-1.03-1.55-1.28-2.31-1.8-2.67-18-12.12-35.61-24.87-54.15-36.1-17.46-10.58-33.74-22.41-47.79-37.15-21.53-22.58-35.67-48.69-37.24-80.58-.06-1.2-.9-2.35-1.83-4.67-2.55,3.73-4.81,6.3-6.26,9.27-14.79,30.47-32.12,60.05-43.6,91.73-25.23,69.66-62.28,132.15-106.4,191.09-42.71,57.06-85.14,114.36-113.14,180.68-2.46,5.82-5.7,11.34-8.85,16.84-24.39,42.54-48.38,85.31-73.46,127.44-13.44,22.58-18.09,73.55-43.29,65.98-14.96-4.49-4.14-31.8,0-46.85ZM1624.75,502.43c1.2-.68,2.39-1.35,3.59-2.03,1.21-5.81,3.66-11.68,3.42-17.43-1.44-34.3-.92-68.98-6.05-102.77-5.95-39.22-26.55-70.04-64.98-86.86-24.25-10.61-45.33-26.61-65.6-43.63-34.95-29.34-72.99-53.66-115.21-71.49-33.02-13.94-65.36-29.48-98.3-43.63-23.51-10.1-47.18-20.02-71.37-28.29-32.17-11-65.35-17.97-99.6-18.48-4.08-.06-7.38.36-9.69,4.69-2.29,4.3-6.9,5.01-10.84,2.55-9.32-5.83-19.36-5.5-29.02-2.83-14.52,4.01-29.13,8.32-42.88,14.37-47.86,21.08-85.76,55.32-120.11,93.79-5.76,6.44-10.27,14.35-13.95,22.23-8.35,17.89-16.36,35.98-23.53,54.37-7.69,19.74-11.24,40.39-9.23,61.69,1.02,10.82,3.64,21.19,10.82,29.81,5.46,6.55,8.52,7.19,15.6,2.35,15.91-10.88,29.65-24.09,38.64-41.28,6.53-12.49,11.52-25.79,17.34-38.67,6.42-14.2,11.86-29.01,19.76-42.35,13.35-22.55,33.08-35.89,60.36-36.42,16.32-.32,32.64-1.22,48.93-2.43,48.43-3.59,96.54,1.04,144.55,6.14,14.61,1.55,29.45,5.15,43.12,10.53,32.89,12.93,65.49,26.73,97.55,41.61,20.5,9.52,42.1,18.85,59.11,33.15,24.66,20.75,46.15,45.43,67.88,69.43,8.31,9.18,16.27,18,27.48,23.46,24.09,11.72,47.24,25.32,64.13,46.38,15.79,19.7,34.12,36.5,52.57,53.38,2.43,2.23,3.7,5.73,5.51,8.65ZM1630.27,1757.6c-3.03-.3-4.46-.63-5.87-.55-34.4,1.92-63.64-9.74-88.38-33.39-2.64-2.52-5.58-4.74-8.38-7.1-12.6-10.6-21.5-23.62-27.39-39.09-5.72-15.03-12.56-29.63-18.92-44.41-6.39-14.85-17.82-20.19-33.57-18.57-24.37,2.5-47.58,8.72-68.62,21.38-48.37,29.1-87.07,68.04-115.92,116.54-1.77,2.98.08,8.93,1.8,12.82.81,1.85,5.51,3.32,8.03,2.81,5.66-1.13,11.4-2.94,16.48-5.65,12.51-6.67,25.81-10.11,39.76-11.61,10.57-1.14,18.34,4.42,19.64,14.96.59,4.77.59,9.88-.49,14.53-4.42,18.98-7.81,38.4-14.45,56.61-10.93,30-24.19,59.15-36.27,88.73-14,34.27-33.37,64.85-59.02,91.77-12.04,12.63-21.92,27.36-32.42,41.41-2.39,3.2-3.83,7.39-4.74,11.35-1.58,6.85,2.89,11.33,8.06,14.19,2.86,1.58,7.55,2.06,10.52.85,16.46-6.69,32.47-14.5,48.98-21.09,26.07-10.4,51.76-22.16,70.53-43.3,27.82-31.34,56.12-62.77,79.59-97.31,21.97-32.33,45.12-62.91,74.13-88.92,5.66-5.08,12.68-9.21,19.78-11.99,15.46-6.04,31.83-6.03,48.31-6,15.77.03,31.64-1.31,47.28-3.46,10.87-1.49,20.24-7.16,25.9-17.31,4.47-8.01,4.08-16.64-1.65-22.4-4.45-4.47-6.64-8.97-2.69-15.81ZM1114.48,68.87c.13.59.26,1.18.39,1.77.69.2,1.36.56,2.06.59,41.77,1.94,82.38,10.49,121.29,25.19,41.03,15.5,80.97,33.84,121.7,50.14,45.4,18.17,87.84,41.33,125.51,72.58,28.99,24.05,59.07,46.22,92.59,63.72,20.99,10.96,39.15,25.69,51.24,46.72.49.85.62,1.91,1.09,3.43,0-10.84.52-19.8-.13-28.67-.84-11.59-1.92-23.24-4.11-34.63-4.52-23.44-10.19-46.66-14.7-70.1-2.06-10.69-5.82-20.39-13.55-27.79-9.3-8.9-19.1-17.41-29.44-25.08-26.62-19.74-54.43-37.86-77.89-61.68-33.44-33.92-74.17-50.42-121.93-48.75-27.29.95-54.59,1.81-81.84,3.5-53.91,3.34-107.19,11.06-159.52,24.67-4.34,1.13-8.5,2.91-12.75,4.39ZM990.53,1318.33c-2.26-7.25-5.04-14.57-6.8-22.12-6.2-26.6-3.98-53.15-.13-79.93,4.5-31.34,11.27-61.99,31.89-86.69,9.77-11.7,8.07-21.51,5.34-34.32-3.47-16.29-10.55-26.66-27.17-31.4-9.11-2.59-17.19-8.87-25.63-13.67-3.93-2.24-7.33-5.57-11.44-7.29-35.83-15.06-67.26-35.55-87.07-70.33-3.22-5.65-7.09-5.77-11.25-2.45-6.26,4.99-12.9,9.94-17.78,16.17-43.22,55.2-49.72,116.79-23.7,179.87,17.86,43.29,47.99,79.66,85.03,109.28,23.78,19.02,47.87,37.67,71.84,56.46.33.26.93.18,1.39.25,5.01-4.47,10.02-8.94,15.48-13.81ZM495.02,1455.94c-4.78,11.78-9.15,22.54-13.5,33.31-12.69,31.45-25.58,62.86-30.32,96.78-6.83,48.85-24.75,93.05-54.29,132.65-5.49,7.35-10.43,15.54-13.62,24.1-7.32,19.64-13.52,39.69-19.87,59.68-1.15,3.61-1.31,7.71-1.13,11.55.36,7.64,2.7,9.8,9.62,7.07,8.73-3.45,17.67-7.38,25.07-13.01,32.16-24.47,58.98-53.75,78.97-89.23,10.64-18.88,22.04-37.43,34.39-55.23,28.86-41.6,70.24-58.34,119.68-58.03,8.28.05,16.58.03,24.85-.38,6.34-.31,10.07-3.91,11.6-10.24,2.35-9.7,1.09-18.9-2.99-27.81-5.9-12.9-14.81-23.46-25.76-32.34-6.63-5.38-14.14-9.85-20.01-15.93-7.21-7.46-15.77-10.84-25.48-13.04-18.76-4.24-37.59-8.38-56.07-13.69-16.35-4.69-28.56-15.45-37.22-30.14-1.09-1.86-2.35-3.62-3.94-6.06ZM996.62,1383.52c-1.76-2.4-2.84-3.98-4.02-5.46-14.14-17.71-31-32.05-50.48-43.86-54.88-33.27-100.38-76.12-133.59-131.68-26.7-44.67-36.1-92.01-26.67-143.29,7.62-41.44,28.81-75.18,57.77-104.67,4.5-4.58,13.02-7.28,14.4-12.3,1.56-5.65-2.95-12.92-4.67-19.53-1.3-5.01-2.35-10.09-3.69-15.93-12.01,9.04-22.7,17.01-33.31,25.08-21.98,16.71-44.3,33.23-56.72,59.01-8.13,16.89-16.18,33.9-22.94,51.36-9.4,24.27-10.58,49.53-4.68,74.87,21.65,92.89,70.43,168.97,143.68,229.45,21.08,17.41,40.33,36.06,53.72,60.15,4.8,8.64,7.78,9.5,15.83,3.25,14.89-11.55,31.72-18.96,49.55-24.43,1.6-.49,3.16-1.11,5.79-2.03ZM513.76,1281.22c2.45,7.81,4.12,15.97,7.5,23.35,11.93,26.07,30.89,45.83,55.46,60.59,9.78,5.88,18.82,13.01,28.11,19.7,8.49,6.12,16.44,13.1,25.35,18.51,38.84,23.59,82.46,34.78,125.51,47.35,3.44,1,7.25.85,10.89,1.03,6.94.34,10.34-4.44,13.53-9.53,3.14-5.02,1.64-8.87-1.39-13.8-9.19-14.93-17.7-30.29-25.94-45.77-9.17-17.22-17.27-35.01-26.71-52.07-11.81-21.36-30.87-31.09-54.96-31.4-7.56-.1-15.12.12-22.68.22-14.99.2-27.47-5.45-38.04-15.95-17.47-17.35-28.19-38.44-34.23-62.02-1.5-5.87-4-7.31-9.81-5.92-27.23,6.51-50.55,36.08-52.59,65.72ZM573.5,1182.02c4.68,1.66,7.15,2.48,9.59,3.41,12.33,4.73,23.24,10.49,27.48,24.82,3.92,13.28,9.77,25.98,14.34,39.09,4.02,11.54,9.46,15.54,21.8,14.86,3.65-.2,7.3-.45,10.95-.62,34.35-1.65,62.5,9.97,85.29,36.55,23.97,27.97,43.74,58.4,55.41,93.09,9.02,26.82,25.28,44.71,50.85,55.45,4.63,1.94,7.78,1.75,12.11-.4,13.5-6.7,27.3-12.81,40.98-19.15,2.27-1.05,4.55-2.09,7.57-3.48-7.96-7.51-15.2-13.99-22.05-20.86-24.6-24.7-49.22-49.38-73.56-74.34-51.65-52.94-86.24-115.83-107.54-186.3-4.23-13.98-4.29-14.88-18.91-16.26-6.49-.62-13.22-.51-19.66.47-26.66,4.06-50.33,15.02-70.93,32.42-7.58,6.4-14.8,13.23-23.72,21.24ZM583.67,1950.63c-1.84,6.79-3.27,11.38-4.31,16.05-4.87,21.86-12.19,42.92-25.18,61.19-10.02,14.1-13.32,32.66-28.73,43.09-.38.26-.58.78-.85,1.18-7.22,10.72-14.24,21.58-21.71,32.12-11.84,16.69-11.76,35.39-9.71,54.46.25,2.34,1.13,4.93,2.56,6.73,1.12,1.41,4.06,2.96,5.32,2.42,10.89-4.66,22.37-8.38,28.06-20.59,9.5-20.39,32.72-25.21,49.69-10.18,6.14,5.44,11.08,12.27,16.3,18.69,8.15,10.01,15.96,20.3,24.17,30.26,1.95,2.36,4.61,4.61,7.42,5.71,16.88,6.63,29.82,18.21,41.27,31.82,1.12,1.34,2.57,2.4,4.74,4.4.44-3.39.97-5.5.94-7.59-.23-15.1.2-30.26-1.03-45.28-2.85-34.74-7.15-69.37-9.64-104.14-1.51-21.15-7.96-40.16-19.9-57.22-8.79-12.56-15.49-25.35-13.96-41.2.03-.34-.54-.74-1.03-1.38-19.16,5.37-32.73-3.23-44.4-20.54ZM852.57,1697.6c11.35-5.1,21.32-10.81,32.05-14.09,12.75-3.89,26.21-5.4,39.22-8.55,4.44-1.08,9.26-3.13,12.48-6.23,12.1-11.67,23.15-24.46,35.46-35.89,18.54-17.23,37.49-34.05,56.9-50.3,11.04-9.24,24.47-14.08,38.99-15.1,14.42-1.01,24.62-9.79,34.69-18.68,7.55-6.67,5.76-16.12,6.25-24.72,1.07-18.79-13.94-30.16-32.77-27.82-37.61,4.68-71.05,20.83-103.74,37.77-35.48,18.38-60.8,47.39-74.11,85.91-2.7,7.8-5.98,15.45-9.66,22.84-1.54,3.1-4.32,6.71-7.33,7.74-13.05,4.43-26.19,10.08-39.68,11.43-25.91,2.58-50.12,10.22-73.66,20.33-5.61,2.41-10.05,8.11-14.32,12.93-3.45,3.91-1.6,6.81,3.49,7.12,4.36.27,8.78.53,13.12.15,23.55-2.04,47.07-4.44,70.64-6.33,4.32-.35,8.77,1.05,11.99,1.49ZM727.85,1692.45c-2.08,1.7-3.15,2.31-3.88,3.2-18.59,22.59-36.82,45.2-50.13,71.76-14.39,28.72-31.45,56.11-47.32,84.08-8.04,14.16-16.6,28.06-23.87,42.61-6.4,12.81-5.75,13.12,5.23,21.76,1.72,1.35,3.54,2.7,4.89,4.39,4.66,5.83,9.13,11.8,14.76,19.14,3.17-5.06,6.71-9.36,8.72-14.28,1.99-4.88,2.92-10.35,3.48-15.65,2.36-22.11,10.04-42.11,22.94-60.18,5.1-7.15,9.89-14.51,15-21.66,14.96-20.96,35.86-30.21,61.11-30,20.73.17,39.49,12.94,44.64,30.11,25.75-4.37,35.44,13.49,43.68,33.08,25.87-23.24,49.26-47.92,69.38-77.36-6.09-.56-10.89-.94-15.68-1.45-10.4-1.09-21.08-1.08-31.11-3.63-17.7-4.49-25.1-17.85-21.5-35.76.61-3.05,1.31-6.07,2.16-9.95-3.15-.17-5.5-.34-7.86-.43-14.13-.57-28.38-.17-42.36-1.96-12.18-1.56-24.35-4.71-35.96-8.76-9.96-3.47-15.11-11.9-15.57-22.75-.07-1.62-.37-3.23-.73-6.3ZM1109.81,520.91c14.38.06,19.18,8.77,21.17,19.14,2.66,13.84,4.5,27.86,6.03,41.88.29,2.7-1.81,7.13-4.05,8.24-2.25,1.11-6.89.03-9.01-1.8-3.59-3.11-5.92-7.64-8.95-11.42-1.58-1.97-3.55-3.64-5.34-5.44-.67.52-1.33,1.03-2,1.55,2.33,4.67,4.41,9.48,7.03,13.98,13.31,22.8,32.32,40.86,50.7,59.3,3.62,3.63,11.32,5.44,16.66,4.69,18.54-2.62,37.14-5.73,55.2-10.55,22.33-5.96,43.13-15.84,59.31-33.07,4.37-4.65,8.17-10.54,10.19-16.55,6.45-19.15,8.33-38.97,6.64-59.18-1.5-18.01-9.9-31.74-25.62-40.04-10.04-5.3-21.05-8.91-31.9-12.4-4.1-1.32-9.22-1.02-13.51.03-30.12,7.37-59.85,6.54-89.42-2.81-2.28-.72-6.01-1.12-7.36.15-9.53,8.94-19.01,18.01-27.63,27.8-3.61,4.11-5.09,10.1-8.14,16.52ZM1098.67,485.6c-16-6.29-31.69-11.1-48.58-9.09-2.47.29-4.99,3.28-6.75,5.58-2.03,2.66-3.98,5.78-4.68,8.98-2.43,11.04-6.85,22.48-5.65,33.23,1.1,9.84,2.3,19.2-2.25,27.59-12.75,23.55-19.1,50.2-35.12,72.13-.71.97-1.73,2.28-1.55,3.23,1.9,10.44-5.25,17.9-8.59,26.57-2.68,6.95-1.32,12.68,3.73,18.08,7.63,8.15,17.07,12.32,27.98,12.29,11.18-.04,22.65.26,33.48-2.02,21.11-4.45,36.44,3.46,49.48,19.02,10.14,12.09,10.32,11.97,23.48,2.74,1.99-1.4,4.61-2.59,5.61-4.56,2.1-4.12,5.29-9.07,4.55-13.02-3.66-19.5-13.39-36.03-28.56-48.84-3.29-2.78-9.05-4.52-13.28-3.93-14.91,2.07-29.17-.53-43.26-4.45-5.94-1.65-13.31-4.17-11.84-12.41,1.49-8.38,9.28-7.76,15.43-7.27,13.83,1.11,27.59,2.96,41.38,4.52,2.98.34,5.95.71,10.58,1.26-4.56-8.16-8.31-14.63-11.83-21.21-11.9-22.22-14.08-45.28-6.09-69.31,4.23-12.72,8.07-25.58,12.31-39.1ZM1251.26,1632.93c-.66-.07-1.31-.14-1.97-.22,2.19-18.31-3.22-34.66-12.05-50.36-2.4-4.28-4.82-4.59-8.76-3.38-13,4.02-24.97,9.89-34.57,19.74-32.24,33.11-46.06,72.8-41.45,118.73,1.57,15.67,9.1,28.63,20.5,39.36,7.58,7.13,16.27,9.27,26.31,5.99,19.48-6.36,34.55-16.87,37.92-38.93,4.63-30.32,9.37-60.63,14.06-90.94ZM920.3,503.56c-2.89,3.18-5.22,7.03-6.35,6.71-2.62-.75-4.8-3.39-6.9-5.52-.98-.99-1.36-2.56-2.05-3.85-2.19-4.07-4.22-8.25-6.66-12.17-2.66-4.29-2.2-7.92,1.8-10.83,2.35-1.71,5.45-2.49,7.51-4.43,1.68-1.58,2.35-4.24,3.4-6.46,1.85-3.94,3.02-8.48,5.82-11.54.97-1.06,5.95,1.57,9.94,2.77,3.47-1.36,8.08-3.94,12.99-4.84,3.35-.61,7.12,1.13,10.71,1.82-.91,2.99-1.82,5.98-3.26,10.67,3.41-1.97,6.53-3.18,8.91-5.24,8.92-7.76,23.45-4.53,27.63,6.33.32.82.95,1.81,1.69,2.14,7.93,3.52,15.9,6.92,23.99,10.41,2.25-11.7-1.47-21.53-11.74-31.97-3.74-3.8-7.29-8.66-12.79-1.87-.87,1.08-3.17,1.47-4.78,1.4-31.09-1.39-62.52,10.28-94.01-3.31-.59,2.98-1.12,5.24-1.47,7.54-5.19,34.01-11.01,67.86-21.83,100.66-2.21,6.69-3.67,13.66-5.06,20.58-3.04,15.15-1.31,19.9,12.9,26.52,9.62,4.48,20.31,6.64,30.49,9.94,21.93,7.11,39.98.37,56.17-14.83,19.56-18.35,31.46-41.34,41.28-65.71.32-.79.04-1.81.04-3.26-10.14-.49-20-.97-28.47-1.38-2.7,3.39-4.63,5.82-6.56,8.24-2.16-2.6-4.37-5.16-6.45-7.81-1.06-1.35-1.9-2.87-1.99-3.01-3.78,1.96-6.72,4.87-8.95,4.4-7.73-1.61-14.55-5.06-18.5-12.83-1.81-3.55-5.06-6.37-7.46-9.28ZM382.03,2079.21c13.28-22.96,26.56-45.35,39.08-68.16,2.09-3.8,1.03-9.45,1.04-14.25.04-16.76-2.55-33.94.29-50.19,8.44-48.28,18.53-96.3,35.11-142.65.76-2.13,1.25-4.36,2.01-7.07-19.8,17-38.88,33.38-57.94,49.74,9.02,9.1,10.75,13.07,7.71,26.51-2.07,9.18-4.71,18.69-9.37,26.72-7.94,13.66-17.4,26.49-26.81,39.23-3.14,4.25-4.49,7.91-3.98,13.24,1.89,20.13,4.27,40.24.19,60.49-3.07,15.23-10.31,25.6-26.69,27.57-.26.03-.44.73-.67,1.14,13.08,12.31,26.15,24.62,40.03,37.68ZM501.6,1734.9c30.68-10.35,47.13,5.62,60.44,29.16,2.31-2.87,4.03-4.81,5.55-6.91,23.86-33.01,48.45-65.31,78.55-93.17,11.9-11.01,21.55-24.47,32.12-36.89,1.66-1.95,2.82-4.33,4.21-6.51-11.17,7.39-22.99,11.34-35.45,12.55-17.19,1.67-34.53,1.82-51.72,3.45-7.53.72-15.71,1.99-22.15,5.58-36.4,20.27-53.96,55.41-71.55,92.74ZM138.01,2091.99c-6.42,1.22-12.69,2.14-18.81,3.66-6.65,1.65-7.83,4.56-3.12,9.61,6.45,6.92,13.42,13.47,20.81,19.38,21.91,17.54,43.8,34.98,61.7,56.92,4.23,5.18,9.69,9.96,15.57,13.05,17.03,8.96,34.4,17.33,51.97,25.19,8.5,3.8,17.69,2.86,24.7-3.64,10.83-10.05,10.8-28.9.97-39.96-20.17-22.69-44.7-38.95-72.69-50.4-7.17-2.93-15.8-5.45-20.32-10.97-7.98-9.76-18.19-11.83-29.11-14.1-5.7-1.19-11.16-3.48-16.78-5.07-4.9-1.38-9.88-2.45-14.88-3.67ZM1188.68,1370.61c.06.7.12,1.41.18,2.11,2.78.43,5.54,1.06,8.33,1.25,20.91,1.43,41.8,3.45,62.74,3.99,44.8,1.14,89.63,2.45,134.42,1.7,17.5-.29,35.11-5.05,52.29-9.34,14.11-3.52,26.28-11.53,36.07-22.6,1.78-2.01,3-4.52,5.32-8.09-4.85,0-7.98-.14-11.09.02-39.18,2.1-78.44,3.31-117.51,6.62-42.71,3.63-85.3,8.76-127.82,14.21-14.5,1.86-28.62,6.66-42.91,10.12ZM671.03,1999.69c.92-.24,1.85-.48,2.77-.71.94-1.65,1.87-3.31,2.83-4.95,9.44-16.19,17.85-33.1,28.55-48.41,23.85-34.1,38.71-71.34,43.72-112.61.94-7.73-.66-10.79-8.18-9.61-8.43,1.33-17.22,3.76-24.57,7.96-26.9,15.37-37.14,41.81-44.73,69.93-3.66,13.58-8.44,26.86-12.54,40.33-.67,2.18-1,4.71-.62,6.92,2.2,12.68,4.39,25.38,7.18,37.93,1.02,4.59,3.67,8.82,5.58,13.22ZM295.73,2032.28c-15.46,7.7-30.97,6.6-46.23,7.5-5.1.3-10.27.62-15.24,1.69-7.18,1.54-15.21,3.32-16.97,11.75-1.83,8.76,5.36,13.08,11.62,16.8,19.27,11.45,38.61,22.81,58.19,33.71,22.11,12.31,45.5,22.54,63.72,40.9.23.23.9.03,1.55.03,5.23-13.22,10.59-26.5,15.63-39.9.48-1.29-.53-3.92-1.7-4.93-14.79-12.68-29.39-25.61-44.76-37.55-10.48-8.14-21.62-15.24-25.81-30.01ZM1050.21,1472.6c-3.42.43-5.84.68-8.23,1.06-2.65.41-5.3.86-7.92,1.43-58.89,12.62-111.01,38.9-156.96,77.71-15.63,13.21-31.72,25.88-47.22,39.24-16.78,14.46-33.13,29.42-49.61,44.22-1.07.96-1.67,2.44-2.83,4.2,11.33-2.45,21.63-5.64,32.16-6.74,15.49-1.62,31.13-1.96,46.71-2.4,6.72-.19,11.08-3.17,13.88-8.87,1.5-3.05,2.57-6.31,3.86-9.47,10.88-26.6,23.76-51.82,45.96-71.19,20.54-17.93,42.67-33.2,68.07-43.5,20.5-8.31,40.89-16.89,62.13-25.68ZM650.76,1515.72c26.53,25.35,50.92,50.46,39.92,91.11,2.6-2.79,4.05-5.56,5.87-8.07,15.74-21.65,31.71-43.14,47.22-64.95,3.67-5.16,6.99-11.1,8.47-17.18,2.63-10.84,3.88-22.04,5.29-33.14.2-1.57-1.7-4.65-3.09-4.97-9.02-2.04-18.05-4.15-25.99,3.71-3.2,3.17-7.73,5.03-11.72,7.38-20.24,11.92-41.09,22.36-65.96,26.1ZM348.81,1994.94c-2.19-9.19-3.76-19.89-7.34-29.88-6.89-19.25-10.88-38.92-12.33-59.24-.48-6.79-1.15-13.71-2.93-20.24-1.91-6.97-4.35-14.11-8.13-20.19-7.02-11.28-21.2-10.86-27.1,1.05-3.33,6.73-5.76,15-5.21,22.33,1.19,15.99,4.45,31.83,7.1,47.69.38,2.28,2.04,4.37,3.18,6.51,5.92,11.18,12.06,22.25,17.74,33.55,4.37,8.7,7.81,17.89,12.38,26.48,2.22,4.17,5.74,7.86,9.3,11.06,3.95,3.56,7.85,2.7,9.51-2.64,1.51-4.84,2.34-9.89,3.84-16.49ZM1564.32,1869.17c-13.4,14.74-26.09,28.49-38.5,42.5-3.36,3.8-6.18,8.2-8.58,12.68-1.27,2.38-1.55,5.53-1.51,8.32.19,11.35.66,22.7,1.05,34.05.19,5.56-.06,11.19.75,16.66,1.18,7.95,3.1,15.79,4.8,23.65.53,2.46,1.37,4.85,2.07,7.27.72.2,1.44.4,2.16.6,2.53-3.65,5.88-6.97,7.42-11,4.26-11.14,8.84-22.33,11.35-33.92,7.02-32.4,13.06-65.02,19.45-97.56.13-.65-.19-1.38-.48-3.26ZM823.02,474.2c-12.62,22.71-2.87,79.65,17.47,94.18,6.28-28.1,12.45-55.72,18.29-81.83-13.04-4.5-24.35-8.41-35.76-12.35ZM1048.56,1227.37c-14.3,24.72-28.31,49.27-35.56,76.2,23.38-8.73,46.59-17.4,69.2-25.85-10.91-16.33-21.94-32.84-33.64-50.35ZM701.67,1467.12c-1.13-1.29-1.48-2.05-2.06-2.31-13.13-5.82-26.25-11.68-39.5-17.24-1.68-.71-4.35-.35-6.05.51-8.43,4.31-16.83,8.72-24.95,13.58-4.3,2.58-8.65,5.64-11.72,9.48-1.57,1.96-1.73,7.28-.19,9.09,5.07,5.96,11.26,10.5,19.96,10.54,24.45.11,43.72-13.02,64.52-23.65ZM1484.97,1938.29c-1.9.37-3.09.37-4.08.82-22.78,10.55-40.65,26.53-52.43,48.78-2.17,4.09-3.06,9.32-3.01,14.01.1,8.36,3.96,11.25,11.82,8.92,17.93-5.34,32.15-16.08,38.77-33.73,4.53-12.08,5.95-25.33,8.93-38.8ZM1544.22,1844.59c-35.47,5.36-87.27,50.36-91.97,78.64,39.27-15.38,68.73-42.46,91.97-78.64ZM255.16,1957.93c1.22-3.85,3.59-7.23,2.85-9.65-6.27-20.43-6.41-41.34-5.91-62.36.22-9.5.8-19.06,0-28.49-.36-4.28-3.13-11.35-5.78-11.83-6.55-1.19-8.02,5.72-9.6,10.74-5.13,16.38-4.21,32.99.48,49.1,4.91,16.88,11.33,33.33,17.97,52.5ZM1003.52,1245.12c.67.39,1.34.79,2,1.18.29-.67.54-1.36.87-2.01,10.38-20.7,21.18-41.2,31-62.16,5.09-10.87.19-21.44-4.17-31.86-11.27,31.35-26.75,61.18-29.7,94.86ZM865.7,456.93c1.82-12.27,3.54-23.82,5.28-35.54-11.04-.48-26.12,9.68-29.96,18.81,7.63,5.17,15.22,10.32,24.67,16.73ZM361.68,1915.01l2.32.33c9.11-14.25,23.42-25.71,23.05-45.51-4.49,2.06-8.18,4.83-11.47,8.01-5.02,4.87-9.85,9.95-14.58,15.1-1.33,1.45-3.08,3.61-2.87,5.2.77,5.68,2.3,11.26,3.55,16.87ZM1582.33,129.52c-26.71-22.4-50.25-49.11-83.04-63.7,23.56,26.51,54.28,43.77,83.04,63.7ZM583.2,2176.66c-2.34-3.42-4.01-5.98-5.8-8.45-15.9-21.93-19.97-21.78-34.18,1.31-.31.51-.13,1.33-.17,1.96,13.02,1.68,25.87,3.34,40.14,5.18ZM1337.94,289.31c33.13,18.37,61.59,42.9,89.79,67.8-24.43-29.81-51.75-55.83-89.79-67.8ZM977.32,508.84c8.75,0,16.2.34,23.58-.21,2.15-.16,5.53-2.61,5.83-4.42.5-3.02.03-7.91-1.93-9.28-5.01-3.48-11.08-5.45-16.64-7.98-3.57,7.2-6.66,13.44-10.84,21.9ZM824.27,1468.41c-4.59-1.49-7.02-6.31-12.12-1.44-4.61,4.4-10.24,7.99-15.96,10.88-7.44,3.76-13.3,11.76-12.82,19.62,13.4-9.52,26.74-19,40.9-29.06ZM1257.52,22.83c-23.03-1.4-45.78.78-67.59,9.46,22.53-3.15,45.06-6.31,67.59-9.46ZM1640.3,244.89c.99,0,1.98-.01,2.97-.02-3.28-16.4-6.55-32.79-9.83-49.19-.98.19-1.96.39-2.94.58,3.27,16.21,6.53,32.41,9.8,48.62ZM969.56,619.49c.17.74.33,1.49.5,2.23,2.94.26,7.67,1.76,8.51.56,3.47-4.96,5.75-10.75,8.47-16.24-.65-.34-1.31-.67-1.96-1.01-5.17,4.82-10.34,9.64-15.51,14.46ZM905.92,419.91c-.09,1.09-.18,2.17-.28,3.26,10.95.92,21.9,1.84,32.85,2.76.09-1.11.19-2.23.28-3.34-10.95-.89-21.9-1.78-32.86-2.68ZM962.61,665.29c-2.61,10.04-.4,14.38,7.12,16.22-2.18-4.97-4.35-9.91-7.12-16.22Z" style="fill: #000; stroke-width: 0px;"/>
      <path d="M1393.42,2318.17c-9.52-13.46,15.66-27.91,26.87-39.57,6.59-6.85,13-13.87,19.71-20.6,21.61-21.7,27.08-48.83,26.23-78-.25-8.68-3.43-11.51-12.64-11.36-21.27.35-40.75,7-58.48,18.45-22.79,14.72-41.93,33.35-56.87,56.04-8.17,12.41-15.36,25.45-23.49,37.88-7.18,10.98-6.23,8.3-13.74,19.06-1.06,1.51-13.4,15.05-15,16-9.22,5.5-24.68,12.03-28.72,2.08-6.01-14.77,18.34-24.21,22.61-39.97,12.76-47.17,40.74-84.74,80.05-112.95,29.89-21.45,65.2-24.9,100.85-21.86,17.61,1.5,27.46,13.46,29.14,32.29,2.99,33.38-5.23,64.09-25.25,90.9-9.28,12.43-21.05,22.97-31.31,34.71-4.54,5.19-9.36,5.79-12.13,16.88-3.17,12.7-22.46,7.57-27.81,0Z" style="fill: #000; stroke-width: 0px;"/>
      <path d="M1045.01,2318.17c-9.79-21.77,35.8-30.37,57.1-39.9,27.65-12.37,52.12,5.76,51.18,36.26-.04,1.21.9,2.78.05,3.64-5.82,5.91-18.17,4.87-24.89,0-2.32-1.68-1.53-5.56-2.72-8.15-3.81-8.25-6.15-9.53-14.03-5.45-7.45,3.86-13.23,11.21-21.32,13.6-14.51,4.29-39.18,13.8-45.38,0Z" style="fill: #000; stroke-width: 0px;"/>
      <path d="M504.82,2318.17c-10.2-11.03.89-30.26,3.94-44.85,3.38-16.16,17.41-19.66,30.07-8.77,4.01,3.45,7.58,7.67,10.48,12.11,9.74,14.9,39.27,24.53,33.1,41.51-3.83,10.55-23.23,4.11-33.67,0-6.9-2.72-10.85-10.11-17.57-16.36,0,7.14,3.26,13.1,0,16.36-6.21,6.21-20.39,6.45-26.35,0Z" style="fill: #000; stroke-width: 0px;"/>
      <path d="M1124.88,846.59c-25.66-2.78-50.77-6.09-76-8.06-26.83-2.1-53.2-5.69-79-13.82-9.64-3.04-20.11-3.54-30.24-4.88-6.08-.8-10.67-3.1-12.69-9.27-2.56-7.82.28-13.65,8.17-15.86,21.82-6.09,43.69-12.01,65.53-18.04,19.81-5.47,38.88-4,57.73,4.57,23.29,10.58,46.85,20.59,70.47,30.41,10.32,4.29,21.1,7.48,31.65,11.23,3.67,1.3,7.7,2.16,10.78,4.34,2.19,1.55,4.47,5.2,4.09,7.48-.36,2.21-3.85,5.16-6.34,5.57-14.7,2.46-29.5,4.29-44.15,6.31ZM1015.01,797.49l.19,1.24h17.13l-.08-1.24h-17.24Z" style="fill: #000; stroke-width: 0px;"/>
      <path d="M1463.52,1768.96c.33,21.11-4.12,36.57-12.09,51.24-20.71,38.13-46.94,72.48-74.73,105.42-13.67,16.2-31.54,28.87-47.72,42.91-2.87,2.49-6.58,4.28-10.18,5.63-9.7,3.64-18.3-1.2-19.08-11.45-.54-7.15-.07-14.7,1.64-21.65,5.46-22.28,17.01-41.48,32.6-58.06,28.56-30.38,47.4-66.68,63.32-104.52,4.97-11.82,6.55-25.37,7.9-38.31,1.25-12.04,2.79-23.63,8.72-34.37,4.48-8.12,16.15-8.96,23.16-3.2,22.66,18.63,24.53,44.61,26.46,66.36ZM1436.36,1782.67c-21.5,32.4-42,63.29-62.5,94.18,24.06-28.6,52.75-54.14,62.5-94.18ZM1358.22,1896.72c-.59-.55-1.18-1.09-1.77-1.64-10.81,13.02-21.62,26.03-32.44,39.05.72.58,1.43,1.17,2.15,1.75,10.69-13.05,21.37-26.11,32.06-39.16Z" style="fill: #000; stroke-width: 0px;"/>
      <path d="M1209.49,556.26c.95,2.19,1.87,3.3,1.8,4.35-.14,2.2-.14,5.46-1.44,6.25-1.47.9-4.91.3-6.41-.95-2.91-2.44-5.1-5.74-7.5-8.77-1.38-1.74-2.56-3.63-4.09-5.83-5.85,9.76-10.94,9.91-15.98.29-3.75-7.16-6.15-15.15-8.08-23.03-.52-2.1,2.55-5.46,4.57-7.68,2.08-2.29,4.92-3.89,7.44-5.81-7.02-7.29-7.06-11.75.19-17.68,1.55-1.26,4.94-2.12,6.29-1.26,1.45.92,2.2,4.13,1.99,6.21-.27,2.72-1.78,5.31-2.75,7.96.7.32,1.39.63,2.09.95.95-1.97,1.9-3.93,2.85-5.9,1.67-3.44,2.46-8.28,5.21-10.03,5.16-3.27,11.3-5.56,17.33-6.65,3.02-.54,6.68,2.47,10.04,3.87-1.7,2.81-3.4,5.63-4.76,7.86,2.31,0,5.99.34,9.55-.15,1.72-.23,3.84-1.66,4.72-3.16,3.59-6.16,18.45-8.03,22.72-2.25.96,1.3.07,4.88-1.14,6.56-.97,1.33-3.73,1.36-5.8,2,11.83,7.93,23.67,15.09,34.58,23.45,7.24,5.55,13.38,12.63,19.56,19.42,3.39,3.72,1.69,9.63-3.77,12.03-4.81,2.12-10.18,3.28-15.42,4.03-22.36,3.19-44.09-2.53-66.04-5.12-2.14-.25-4.27-.53-7.78-.97ZM1285,546.19c-9.96-7.47-18.38-13.79-26.36-19.78-5.6,8.18-10.64,15.53-15.93,23.26,13.64,4.18,26.92,2.62,42.29-3.48Z" style="fill: #000; stroke-width: 0px;"/>
    </g>
    <g id="Dark_Shading" data-name="Dark Shading">
      <path d="M1255.57,1715.91c.97-5.79,1.35-11.75,3.01-17.33,6.59-22.12,10.99-44.53,10.37-67.71-.18-6.81-.45-13.7-1.6-20.39-1.75-10.24.04-19.23,6.48-27.5,1.52-1.95,1.48-5.12,2.15-7.72-2.69-.6-5.62-2.19-8.03-1.62-9.23,2.2-16.97.95-25.42-4.32-16.29-10.16-32.09-3.63-46.82,5.04-23.74,13.97-37.93,35.58-45.75,61.31-12.79,42.06-9.71,83.07,11.72,121.78,4.55,8.22,11.51,16.14,19.29,21.32,17.69,11.77,40.12,5.65,51.66-12.26,4.54-7.04,9.41-13.87,15.12-22.26,2.81,4.49,4.66,6.93,5.98,9.63,11.24,22.94,32.56,29.51,54.94,16.73,10.17-5.8,20.15-11.92,30.36-17.66,3.03-1.7,6.53-2.58,11.36-4.43-.54,4.29-.5,6.93-1.25,9.31-4.02,12.79-8.44,25.46-12.33,38.29-4.95,16.33-9.67,32.73-14.19,49.18-1.93,7.02-4.11,13.03-11.63,16.51-4.35,2.01-8.13,6.3-10.98,10.4-41.24,59.34-79.43,120.62-115.47,183.25-1.57,2.73-3.07,5.61-3.92,8.62-3.83,13.4,5.23,24.87,19.13,24.12,4.06-.22,8.06-1.5,12.1-2.3,2.44,6.75,16.66,14.71,26.3,13.24,6.53-1,13.37-3.23,18.93-6.72,34.74-21.8,64.04-49.99,87.75-83.05,30.06-41.92,67.02-76.51,106.12-109.45,25.58-21.55,47.04-46.76,60.69-77.84,2.18-4.96,5.66-6.92,11.15-5.29,9.82,2.91,19.73,5.5,29.57,8.31,8.6,2.46,10.58,4.9,6.9,13.16-6.22,13.94-13.56,27.4-20.8,40.86-6.09,11.32-12.98,22.21-18.93,33.59-2.32,4.45-4.56,5.93-9.04,3.61-11.25-5.82-22.24-4-32.97,1.46-30.99,15.8-54.6,38.35-64.9,72.56-4.78,15.89-.25,29.54,12.53,39.97,11.49,9.38,24.5,10.11,37.9,4.58,16.82-6.94,29.02-19.45,39.51-33.82,3.45-4.72,6.3-9.87,9.57-14.72,1.39-2.07,3.15-3.89,4.74-5.82l2.07.43c1.35,9.27,2.92,18.51,3.99,27.81.94,8.23,1.78,16.53,1.84,24.81.09,12.65,1.94,24.42,8.76,35.63,6.46,10.61,4.1,22.42-.2,33.29-6.66,16.84-8.68,34.34-9.65,52.2-2.81,51.46-33.26,14.43-69.36,7.04-40.39-8.26-74.37,5.2-105.09,29.99-20.41,16.47-36.41,36.53-47.1,60.66-4.86,10.97-13.46,27.85-12.14,39.7,1.36,12.32-96.79-2.6-110,4-12,6-27.02,23.52-33,27-13.92,8.09-77.94,26.95-94,28-61,4-208.8-66.7-208.1-79.84.21-4,2.49-9.46,5.62-11.49,49.01-31.82,91.88-70.82,132.77-112.19,19.92-20.15,39.88-40.1,65.34-53.62,15.7-8.34,31.3-17.08,46.04-27,28.59-19.23,50.07-44.5,62.86-77.02,2.7-6.88,8.33-13.03,13.75-18.34,31.35-30.72,60.28-63.22,69.64-107.7,3.04-14.45,2.91-30.19,1.01-44.92-2.87-22.3-22.54-30.08-41.45-17.65-21.93,14.41-37.95,34.33-49.97,57.32-6.99,13.37-11.96,27.77-18.6,41.34-2.3,4.7-6.45,8.77-10.52,12.24-5.16,4.41-11.9,7.13-16.55,11.94-20.92,21.66-47.71,32.49-75.26,42.09-16.57,5.78-33.2,11.4-49.71,17.37-17.83,6.45-33.82,16.16-48.37,28.29-1.12.94-2.1,2.3-3.39,2.73-2.23.75-4.66.91-7,1.32.15-2.4-.49-5.25.59-7.11,4.14-7.17,9.01-13.91,13.28-21.01,16.58-27.58,32.89-55.32,49.59-82.82,11.89-19.58,24.98-38.47,36.09-58.47,5.95-10.7,9.05-23.03,13.05-34.75,2.44-7.14,4.51-14.45,6.03-21.83.98-4.76.67-9.8.93-14.71-.87-.3-1.73-.59-2.6-.89,1.87-1.39,3.75-2.76,5.6-4.18,13.7-10.53,15.77-28,4.69-41.16-4.4-5.22-9.19-10.11-13.89-15.06-3.48-3.66-4.17-6.99-1.05-11.66,1.73-2.59,1.74-6.71,1.54-10.09-.17-2.81-1.98-5.47-2.73-8.29-3.11-11.75-4.08-12.99-14.45-6.27-16,10.36-32.12,11.51-50.08,6.79-11.22-2.95-23.14-3.23-34.74-4.76-2-.26-3.96-.79-7.69-1.54,2.68-2.44,3.81-4.03,5.34-4.78,22.31-10.9,39.06-28.35,54.02-47.4,19.99-25.47,44.28-43.78,76.33-50.78,24.19-5.28,37.78-21.9,45.92-43.84.9-2.44-1.17-6.61-2.94-9.25-2.25-3.35-6.12-5.61-8.42-8.95-13.34-19.34-31.92-25.11-54.33-21.86-18.28,2.65-34.49,10.48-49.95,19.93-29.84,18.24-58.59,37.93-81.26,65.16-14.61,17.56-24.95,37.31-29.52,59.75-1.3,6.39-4.11,7.78-10.12,6.58-32.46-6.48-64.55-5.93-95.75,6.39-7.01,2.77-13.83,6.12-20.44,9.77-14.08,7.77-20.32,21.8-16.25,35.54,3.82,12.89,17.31,21.57,33.27,19.14,23.58-3.6,46.94-8.65,70.39-13.11,3.35-.64,6.64-1.57,9.98-2.19,1.36-.25,2.81-.04,4.94-.04-1.19,4.31-2.62,7.89-3.14,11.6-2.09,14.87,4.85,29.35,18.92,35.59,15.11,6.7,30.98,11.69,46.55,17.35,2.74,1,5.64,1.55,8.44,2.42,8.54,2.66,9.09,5.02,2.77,11.13-18.4,17.81-37.2,35.24-55.02,53.63-15.08,15.57-29.01,32.26-43.45,48.45-1.59,1.78-3.14,3.59-6.05,6.93-1.74-4.76-3.17-8.13-4.21-11.61-2-6.75-2.87-14.01-5.84-20.28-7.92-16.76-25.07-21.52-41.16-12.2-.8.46-1.7.76-3.65,1.61-.88-4.95-1.88-9.36-2.43-13.82-1.76-14.43-8.51-25.73-22.14-31.13-14.16-5.61-27.53-2.33-38.7,7.89-15.29,13.99-25.29,31.72-32.22,50.87-6.78,18.77-12.64,37.96-17.39,57.34-3.34,13.61-11.12,24.25-18.77,35.19-.89,1.27-5.3,1.51-6.98.46-2.77-1.73-4.78-4.8-6.87-7.49-16.49-21.2-34.91-26.41-61.89-16.2,2.66-6.62,4.24-12.38,7.1-17.42,24.8-43.71,49.9-87.25,74.73-130.94,4.94-8.68,9.2-17.76,13.58-26.75,5.1-10.45,6.52-21.44,3.75-32.78-2.01-8.23,0-15.14,5.07-21.87,20.54-27.27,40.87-54.7,61.1-82.2,3.61-4.9,7.81-6.92,13.77-5.92,9.82,1.65,18.15-1.39,25.55-8,12.92-11.53,26.87-22.01,38.97-34.32,34.32-34.91,75.7-59.71,117.49-83.99,12.44-7.23,25.02-14.28,37.93-20.61,38.23-18.73,79.22-24.52,121.1-22.11,35.52,2.05,70.88,6.77,106.29,10.47,6,.63,11.82,1.46,15.31,8.11,1.16,2.2,6.88,4.12,9.39,3.18,24.05-9.05,48.3-3.73,72.46-1.7,36.93,3.11,73.82,8.08,110.95,3.65,13.3-1.59,26.59-3.85,39.61-6.94,9.02-2.14,15.46.48,21.68,6.52,10.7,10.41,18.72,11.13,29.94,1.23,6.64-5.87,12.76-12.98,17.06-20.68,6.9-12.34,16.04-22.28,25.79-32.32,11.8-12.14,22.07-25.87,32.16-39.53,6.87-9.3,9.28-20.31,7.13-32.02-1.28-6.99,1.8-12.11,8.55-12.93,8.29-1.01,16.95-1.4,25.14-.11,8.87,1.4,16.95,3.46,26.31.56,20.14-6.23,43.76,6.43,49.61,26.92,4.11,14.4,7.02,29.51,7.77,44.44,2.31,45.73-2.68,91.12-8.84,136.37-5.46,40.15-12.02,80.1-23.01,119.18-7.27,25.83-15.06,51.5-28.66,74.9-2.8,4.82-5.81,9.79-9.79,13.56-2.38,2.25-7.33,3.96-10.27,3.08-17.7-5.33-35.41-10.8-52.59-17.58-12.7-5.02-17.9-16.43-19.89-29.53-1.42-9.4-3.77-18.66-5.17-28.06-3.3-22.21-16.9-37.64-32.92-51.78-25.77-22.73-55.85-24.44-87.27-17.61-49.16,10.68-88.2,38.05-120.33,75.85-8.19,9.63-14.98,20.43-22.51,30.62-2.66,3.59-5.61,6.97-8.42,10.45-1.12-.47-2.24-.95-3.37-1.42Z" style="fill: #000; stroke-width: 0px;"/>
      <path d="M691.86,1433.65c-10.46,1.63-20.94,3.14-31.38,4.94-10.33,1.78-20.77,3.24-30.87,5.94-14.52,3.88-23.4,16.78-21.69,29.88,2.18,16.67,18.33,27.39,35.57,21.3,18.8-6.64,36.93-15.33,54.91-24.03,9.15-4.42,12.1-13.55,9.95-23.71-.29-1.37-.42-2.77-.94-6.25,4.1,1.97,7.12,3.03,9.7,4.75,5.68,3.78,10.91,8.27,16.73,11.8,20.98,12.74,44.85,5.06,56.57-17.92,1.16-2.28,2.5-4.46,4.29-7.64,8.84,10.84,11.83,22.15,9.57,34.34-3.93,21.23-12.68,39.98-28.21,55.76-11.42,11.6-21.35,24.71-31.56,37.45-21.17,26.45-42,53.18-63.13,79.66-11.71,14.68-23.46,29.34-35.75,43.53-4.34,5-9.79,9.7-15.69,12.55-13.28,6.42-22.99,15.63-30.11,28.65-12.29,22.46-25.57,44.38-38.53,66.48-1.67,2.85-3.89,5.38-6.88,9.45-1.27-3.7-2.16-5.81-2.72-8.01-3.89-15.15-12.08-26.62-28.47-28.62-16.09-1.97-27.54,6.29-35.36,19.89-20.41,35.52-35.7,73.21-47.01,112.52-4.11,14.3-7.49,28.81-11.3,43.19-2.36,8.91-1.98,17.42,3.14,25.34,3.71,5.73,2.77,10.69-.06,16.98-10.71,23.75-20.46,47.94-30.48,72.01-.83,2-1.45,4.27-1.39,6.4.06,2.06,1.14,4.09,1.77,6.13,1.61-1.13,3.77-1.9,4.73-3.43,6.88-10.94,13.45-22.07,20.24-33.06,3.05-4.93,6.36-9.69,10.99-13.92-.93,2.23-1.78,4.49-2.81,6.67-19.5,41.55-39.31,83.1-49.96,127.97-8.17,34.38-14.29,69.26-20.82,104.02-2.22,11.79,3.85,21.07,13.66,23.5,10.03,2.48,19.63-3.27,23.55-14.83,33.42-98.57,79.13-191.56,128.33-282.96,1.84-3.43,4.51-6.41,6.79-9.6.68.28,1.36.56,2.04.84-.18,3.96-.67,7.94-.49,11.89.89,19.48,1.63,38.99,3.12,58.43.55,7.12-1.59,11.5-7.65,14.94-35.5,20.16-53.08,51.88-57.99,91.42-1.29,10.41,2.05,19.51,11.63,24.99,9.2,5.26,18.38,3.81,26.97-1.77,5.72-3.72,11.13-7.91,16.78-11.75,2.07-1.41,4.42-2.4,8.65-4.64-2.98,8.34-5.07,14.47-7.36,20.52-2.26,5.96-.72,9.25,5.61,11.63,37.4,14.07,72.5,32.88,105.06,55.8,15.15,10.66,27.63,25.14,41.27,37.95,1.86,1.75,3.38,3.87,5.06,5.82.74-.1,1.49-.21,2.23-.31.42-3.05,1.41-6.15,1.17-9.16-3.68-46.67-7.03-93.38-11.5-139.99-3.03-31.54-7.6-62.94-11.66-94.37-1.17-9.04-1.43-9.02,7.81-8.69,15.16.54,23.55-5.69,25.81-20.85,7.68-51.45,27.13-98.58,51.78-143.87.76-1.4,1.82-2.64,3.84-5.53.84,3.84,1.72,6.02,1.73,8.2.11,15.13.1,30.25,0,45.38-.04,6.77-2.92,10.78-9.14,14.91-8,5.32-14.01,13.82-20.18,21.51-1.17,1.46.07,6.06,1.58,8.27,5.33,7.85,11.13,15.38,16.99,22.85,6.02,7.68,8.09,16.42,8.28,25.96.43,21.7-.25,43.54,1.88,65.08,7.62,76.96.59,117.83,7.39,194.87,6,68-67.21,69.83-136,70-7.85.02-53.63-13.29-65-24-8.64-8.14-30.82-24.88-40.75-34.49-3.94,12.01-41.51,81.94-76.25,101.49-79.24,44.57-42.05-67.61-96.21-67.26-8.27.05-13.05-1.8-13.24-10.71-.02-1.07-.9-2.12-2.09-4.71-2.25,3.89-4.26,6.53-5.39,9.51-1.49,3.92-12.66,21.3-17.08,21.17-9.02-.26-9.04-15.73-18.06-15.49-4.89.13-7.09-2.1-7.92-6.59-2.34-12.72-4.44-25.07-.2-38.2,6.35-19.65-2.8-36.47-22.05-44.08-19.57-7.74-39.97-8.33-60.55-7.05-36,2.23-71,9.66-105.31,20.57-2.96.94-6,1.63-9.54,2.58-.14-2.97-52.37,35.26-53.37-.74C37.32,2182.59-.02,2201.6,0,2141.08c.01-30.71,92.27-147.52,91.98-178.22-.09-9.55,2.27-17.92,6.72-26.44,22.06-42.26,46.61-82.93,75.34-121,7.49-9.92,15.01-19.9,23.34-29.1,11.84-13.07,20.35-27.78,26.28-44.34,28.15-78.7,67.27-152.05,109.74-223.74,11.19-18.89,22.84-37.52,33.4-56.75,4.5-8.2,7.73-17.41,9.84-26.56,5.52-23.93,16.95-45.05,28.92-66.11,5.88-10.34,11.79-21.05,15.16-32.35,18.17-60.92,54.72-108.82,102.93-148.83,30.54-25.34,62.45-48.78,99.77-62.99,15.26-5.81,31.87-8.64,48.12-11.13,22.69-3.47,36.87,9.25,46.34,28.21,4.13,8.26,7.45,16.98,10.47,25.72,3.34,9.68,6.15,19.52,3.5,30.07-1.7,6.76,1.34,12.23,7.1,15.48,23.91,13.5,42.39,32.78,60.61,53.01,19.37,21.51,41.22,40.8,62.21,60.83,26.45,25.24,51.32,51.42,60.28,88.61,1.28,5.32.75,8.59-4.18,11.52-21.38,12.72-42.65,25.64-63.84,38.66-6.55,4.02-11.68,4.87-17.72-1.71-19.09-20.79-39.8-40.06-50.87-67.13-7.97-19.5-22.02-35.02-37.34-49.21-20.76-19.21-41.73-38.18-62.58-57.3-8.15-7.47-11.84-8.74-20.46-1.92-12.12,9.58-24.19,8.77-36.92,2.93-8.83-4.06-17.89-7.97-25.95-13.31-13.01-8.63-16.11-18.52-12.11-33.62,1.56-5.89,3.88-11.6,5.12-17.54,1.8-8.6-.71-16.15-7.99-21.32-7.02-4.99-15.36-5.49-22.11-.79-24.37,16.95-44.73,37.63-50.89,67.96-7.01,34.56,6.03,62.71,31.02,85.99,21.29,19.83,47.71,31.07,73.83,42.54,21.66,9.51,43.75,18.01,65.63,27.01,2.57,1.06,4.99,2.46,7.48,3.7-.1.57-.21,1.14-.31,1.71ZM632.21,1624.66l.3-1.72c1.95,0,3.9.05,5.85,0,29.11-.82,41.17-18.63,31.73-46.14-10.32-30.09-30.85-50.86-58.37-65.39-19.44-10.26-40.61-15.18-62.05-18.78-9.58-1.61-17.17-5.87-22.07-13.96-8.94-14.75-17.27-29.87-26.01-44.75-1.2-2.04-3.25-3.57-4.91-5.33-1.83,1.75-4.55,3.19-5.3,5.32-1.94,5.48-3.25,11.21-4.35,16.93-1.65,8.61-2.8,17.31-4.35,25.94-2.98,16.5-8.6,31.34-24.04,40.66-3.85,2.32-6.69,6.35-9.88,9.71-11.3,11.9-15.43,26.6-9.16,41.19,6.45,15,4.76,28.07-1.7,41.73-.1.22-.18.45-.25.69-6.83,23.98-17.22,46.02-34.61,64.33-2,2.11-3.57,4.63-5.28,7.01-24.18,33.62-42.52,69.97-51.52,110.66-2.32,10.48-1.36,20.56,5.74,29.07,13.85,16.61,38.46,12.53,48.88-7.93,4.31-8.47,8.31-17.13,13.02-25.37,1.29-2.25,4.83-4.88,7.04-4.63,6.3.7,9.31-2.4,12.25-7.1,33.55-53.85,70.35-105.42,108.89-155.81,7.43-9.72,15.23-11.64,25.79-9.14,5.22,1.23,10.4,2.67,15.66,3.68,16.22,3.13,32.47,6.11,48.71,9.14ZM319.7,2018.26c2.69,1.64,4.54,2.71,6.32,3.88,5.77,3.8,11.82,5.66,18.67,3.08,9.19-3.45,13.66-12.26,12.27-24.71-4.07-36.42-10.44-72.39-21.37-107.45-2.1-6.75-3.65-13.73-6.4-20.21-9.93-23.37-36.22-25.14-48.27-8.88-.48.65-1.39.99-2.19,1.53-2.35-3.95-4.44-7.51-6.57-11.05-7.62-12.65-19.23-17.88-32.8-14.81-11.07,2.51-20.58,14.47-21.33,27.76-.36,6.29-.42,12.84.92,18.93,4.66,21.16,9.62,42.28,15.21,63.21,3,11.22,12.01,16.94,22.38,16.01,9.83-.87,17.34-8.75,18.54-20.42,1.19-11.63,1.69-23.34,2.55-35.01.18-2.49.61-4.96.92-7.44,2.09,1.12,2.87,2.27,3.31,3.54,8.89,26.08,17.52,52.25,26.71,78.23,3.08,8.7,2.06,15.42-3.98,22.68-15.81,19.01-9.76,18.45-36.32,14.39-25.4-3.88-49.02.51-70.78,14.21-16.34,10.28-18.24,30.21-3.4,42.57,11.96,9.96,24.41,19.61,37.72,27.59,32.4,19.42,65.42,37.79,98.19,56.59,10.08,5.78,20.88,7.07,31.77,3.59,17.36-5.54,25.89-28.59,17.06-47.13-5.64-11.83-12.23-23.33-19.47-34.26-10.72-16.2-24.55-29.58-40.57-40.68-3.73-2.58-8.43-5.23-6.21-11.01,1.89-4.89,4.55-9.49,7.12-14.74ZM133.86,2080.64c-4.63,0-9.27-.16-13.89.03-11.28.46-20,6.85-21.94,15.9-2.12,9.88,2.83,18.96,13.26,24.3,7.59,3.89,15.67,7.05,22.67,11.81,21.93,14.94,43.03,31.11,65.23,45.61,23.22,15.16,46.97,29.62,71.21,43.08,18.2,10.11,38.79.95,42.85-17.86,2.59-11.99-2.03-22.07-10.79-30.22-14.98-13.94-30.07-27.77-45.22-41.54-35-31.81-75.5-50.41-123.39-51.1ZM358.73,1904.91c8.67-5.98,12.12-13.91,14.14-23.36-9.98,1-17.44,13.09-14.14,23.36Z" style="fill: #000; stroke-width: 0px;"/>
      <path d="M1628.1,340.86c6.03,7.91,10.82,14.57,15.99,20.91,10.11,12.38,13.7,25.51,6.3,40.68-1.28,2.61-.94,6.21-.74,9.31.74,11.92,1.2,23.89,2.83,35.7.87,6.32,3.24,12.68,6.11,18.43,9.23,18.48,17.96,37.08,15.71,58.48-.64,6.13-2.5,12.43-5.19,17.98-2.62,5.38-2.88,9.96-.59,15.29,6.82,15.88,10.44,32.47,10.39,49.81-.02,5.1.79,11.06-5.66,12.82-6.5,1.77-8.96-3.59-11.15-8.26-6.94-14.79-13.76-29.64-20.56-44.49-1.92-4.19-3.65-8.43-10.86-8.1,1.2,3.52,1.82,6.23,3,8.66,3.41,7.02,7.35,13.8,10.54,20.91,5.65,12.57,1.63,23.46-10.85,28.97-9.03,3.98-13.87,11.12-16.91,19.93-9.49,27.49-23.12,52.64-42.05,74.82-.63.74-1.24,1.51-1.89,2.24-11.8,13.34-20.98,14.76-37.77,4.87-1.31,3.68-2.89,7.02-3.69,10.54-6.72,29.46-11.84,59.39-20.53,88.25-4.4,14.59-9.15,27.82-8,43.73,1.21,16.89-9.43,31.14-19.41,44.02-16.56,21.35-34.44,41.67-51.52,62.62-3.97,4.87-6.61,10.79-10.44,15.8-3.76,4.92-7.58,10.21-12.52,13.72-15.88,11.3-32.22,21.99-48.55,32.63-5.48,3.57-11.26,6.94-17.32,9.36-38.93,15.55-76.57,34.56-117.49,44.77-19.15,4.78-38.45,9.22-57.91,12.34-8.54,1.37-17.72-.58-26.49-1.83-2.78-.39-6.04-2.85-7.6-5.31-5.65-8.93-13.94-8.62-22.66-7.5-14.27,1.83-28.52,3.83-42.81,5.5-11.98,1.4-21.45-1.8-26.98-13.9-1.41-3.08-6.1-5.26-9.74-6.64-25.07-9.47-50.3-18.5-75.36-27.97-4.49-1.7-8.41-4.88-12.67-7.24-8.25-4.58-16.37-9.43-24.86-13.51-19.07-9.15-34.99-22.13-47.89-38.75-6.25-8.05-12.51-16.23-17.56-25.04-9.31-16.23-2.81-38.38,18.96-43.44,14.8-3.44,26.3-1.08,36.01,10.26,4.2,4.91,7.45,3.39,10.4-1.13,6.65-10.21,13.17-20.5,19.82-30.71,6.53-10.01,15.16-16.23,27.78-15.87,8.61.25,10.81-7.01,13.85-13,2.42-4.75,4.6-9.62,6.94-14.41,6.8-13.97,30.14-17.59,41.59.83,2.91,4.69,6.85,8.73,9.99,13.3,2.59,3.77,5.25,7.65,6.93,11.87,4.88,12.23,8.61,24.97,14.15,36.88,3.15,6.79,8.14,13.25,13.72,18.29,10.82,9.81,22.71,18.43,34.02,27.71,7.57,6.21,14.7,10.86,25.74,7.12,6.16-2.09,14.06-.61,20.81.9,41.22,9.23,82.71,17.01,124.95,18.8,17.68.75,35.54-1.49,53.24-3.19,4.18-.4,8.88-3.27,11.91-6.39,26.17-26.97,51.83-54.46,72.62-85.96,7.37-11.17,13.51-23.15,20.3-34.71,6.92-11.77,16.43-20.51,29.7-24.6,6.14-1.89,6.04-7.31,6.41-11.93,1.14-14.1,2.11-28.23,2.53-42.36.73-24.38.35-48.81,1.6-73.15,1.83-35.63,6.66-70.92,16.82-105.24,3.9-13.16,1.59-26.1.22-39.18-1.2-11.4-2.48-22.8-3.11-34.24-.26-4.77.22-9.94,1.85-14.38,3.72-10.12,1.6-19.11-3.39-27.99-2.74-4.88-5.57-9.76-7.86-14.85-6.56-14.53-4.56-25.02,6.62-36.73,7.67-8.03,8.06-11.43-.43-19.11-19.87-17.99-39.45-36.44-60.53-52.93-39.36-30.79-79.66-60.18-123.92-84.07-54.79-29.58-112.29-48.02-174.66-51.34-26.69-1.42-52.42,2.5-78.12,9.02-13.88,3.52-28.21,5.34-42.41,7.51-3.2.49-6.95-.09-9.95-1.35-8.98-3.77-11.77-3.63-18.09,3.62-15.6,17.9-29.98,36.8-39.91,58.44-10.17,22.15-18.97,44.92-28.49,67.37-2.38,5.61-4.98,11.14-7.84,16.52-6.58,12.4-20.11,19.79-32.53,18.04-13.62-1.92-24.54-12.45-27.77-26.65-5.45-23.94-4.37-47.78,3.65-70.76,13.21-37.84,28.9-74.66,52.25-107.6,14.41-20.33,33.3-36.11,53.15-50.91,12.3-9.17,24.32-18.75,35.93-28.77,18.5-15.96,38.23-29.92,62.23-35.72,10.51-2.54,18.03-4.97,23.83-16.05,4.91-9.37,16.37-15.38,25.13-22.64,6.9-5.72,13.91-11.35,21.2-16.55,5.28-3.77,10.72-7.92,16.75-9.93,28.52-9.51,57.91-9.82,87.58-7.51,9.08.71,18.61.29,27.47-1.69,21.72-4.85,43.43-5.35,65.46-3.54,10.38.85,21,.98,31.34-.15,31.59-3.46,61.38,1.57,86.77,21.02,33.77,25.87,70.59,47.04,105.33,71.35,36.7,25.68,70.01,55.36,99.28,89.38,13.37,15.55,22.69,32.94,21.99,54.28-.3,9.1-3.96,16.65-9.17,24.15-3.7,5.32-5.77,12.28-6.9,18.79-2.58,14.89-4.11,29.96-6.13,44.95-.95,7.07-1.21,14.64-12.18,15.78ZM1202.06,89.23c4.36,7.47,10.87,9.26,17.25,11.46,33.4,11.52,67.45,21.53,99.95,35.2,35.47,14.91,69.49,33.26,104.18,50.03,3.12,1.51,6.54,2.39,9.83,3.57-45.04-40.49-170.59-94.2-231.21-100.26ZM1074.35,1040.63c-.04-1.08-.08-2.16-.12-3.24-10.13-3.97-20.26-7.93-30.39-11.9,3.62,7.73,7.6,13.92,11.78,19.98.54.78,2.33,1.45,3.18,1.15,5.24-1.83,10.37-3.96,15.54-5.99ZM1133.75,75.89c-10.84-9.81-26.6-8.21-39.98,3.09,13.25-1.02,26.04-2.01,39.98-3.09Z" style="fill: #000; stroke-width: 0px;"/>
      <path d="M1368.96,1410.41c-35.84.4-71.45-1.21-106.81-8.95-24.42-5.34-49.71-6.69-74.62-9.8-3.14-.39-6.32-.48-9.46-.9-12.34-1.64-16.63-10.23-8.9-20.31,3.99-5.2,10.58-10.41,16.76-11.58,22.19-4.22,44.66-7.01,67.1-9.78,25.1-3.1,50.34-5.06,75.38-8.52,23.36-3.23,46.52-7.86,69.8-11.71,23.74-3.92,47.19-10.72,71.54-9.01,8.1.57,16.81,1.89,23.9,5.5,24.42,12.4,26.61,44.13,4.64,60.49-17.77,13.23-37.49,21.7-59.92,22.99-7.3.42-14.58,1.41-21.89,1.52-15.84.24-31.68.07-47.53.07Z" style="fill: #000; stroke-width: 0px;"/>
      <path d="M865.74,781.04c3.53-7.01,6.17-14.71,10.86-20.84,4.8-6.27,10.88-12.3,17.68-16.17,23.92-13.59,48.38-26.26,72.7-39.14,2.98-1.58,6.35-2.54,9.62-3.46,16.22-4.6,29.55,2.22,36.05,17.72,1.22,2.91,4.25,6.18,7.06,6.89,1.65.42,5.42-3.43,6.65-6.09,5.06-10.98,13.68-16.47,25.31-16.76,19.66-.49,38.02,5.83,56.02,12.67,27.28,10.36,52.96,23.85,74.91,43.42,7.05,6.29,13.5,13.41,19.39,20.81,7.2,9.07,7.96,23.43,1.18,32.23-2.7,3.5-8.87,6.72-13,6.23-8.46-1.01-16.96-3.83-24.84-7.28-38.61-16.91-76.92-34.53-115.6-51.29-8.51-3.69-17.67-5.65-23.76-13.41-.3-.38-.67-.71-.99-1.07-7.24-8.35-7.08-8.18-15.54-.13-3.47,3.31-7.48,6.45-11.81,8.4-30.93,13.92-61.24,28.93-89.82,47.34-4.63,2.98-10.95,4.38-16.55,4.58-14.4.52-23.7-9.3-23.7-23.73-.6-.3-1.21-.61-1.81-.91Z" style="fill: #000; stroke-width: 0px;"/>
      <path d="M1497.83,918.07c1.33-11.1,6.51-21.39,17.96-26.93,7.76-3.75,12.35-9.36,16.4-16.7,3.3-5.98,8.16-11.76,13.69-15.72,12.27-8.77,25.46-16.27,38.17-24.44,6.4-4.11,11.31-8.17,10.84-17.84-.35-6.96,3.62-15.21,8.05-21.09,6.69-8.89,15.18-16.78,26.84-19.19,17.18-3.55,30.84,12.06,25.27,28.76-1.15,3.46-3.55,6.59-4.2,10.1-.95,5.09-1.8,10.55-.95,15.56,1.51,8.85.27,16.65-5.91,23.09-6.24,6.5-13,12.51-19.56,18.7-3.65,3.45-5.55,6.84-2.82,12.19,5.9,11.56,2.83,22.55-8.5,28.83-24.64,13.64-50.52,24.48-78.03,30.83-7.26,1.68-14.99,1.66-22.51,1.83-6.71.15-12.26-4.82-13.2-11.37-.73-5.06-.96-10.19-1.53-16.59Z" style="fill: #000; stroke-width: 0px;"/>
      <path d="M260.05,2294.55c-10.93,8.72-17.53,22.68-35.58,22.24-34.83-.85-50.46,67.3-104.54-.18-3.83,0-7.27.3-9.39-4.74-.99-2.35-6.04-3.3-9.43-4.25-6.61-1.86-10.31-5.29-8.64-11.34,55.84-1.22,111.31-2.43,166.77-3.64.27.64.54,1.28.81,1.92Z" style="fill: #000; stroke-width: 0px;"/>
      <path d="M1298.85,1964.74c27.38-46.76,65.27-82.65,96.84-122.71-9.92,31.47-68.41,106.67-96.84,122.71Z" style="fill: #000; stroke-width: 0px;"/>
      <path d="M1401.72,1832.17c7.26-14.77,14.81-28.66,20.98-43.14,5.62-13.18,10.17-26.86,14.41-40.56,3.84-12.42-.02-24.08-5.65-35.23-.82-1.62-1.56-3.28-2.34-4.92.51-.55,1.03-1.11,1.54-1.66,1.79,1.24,4.5,2.1,5.23,3.8,6.04,14.04,11.79,28.21,17.47,42.39,2.36,5.88,1.35,10.94-2.83,16.21-16.34,20.59-32.21,41.56-48.81,63.11Z" style="fill: #000; stroke-width: 0px;"/>
    </g>
  </g>
</svg>